<!-- Generated by IcoMoon.io -->
<svg version="1.1" xmlns="http://www.w3.org/2000/svg" width="57" height="32" viewBox="0 0 57 32">
<title>mobileDesign</title>
<path fill="#ff5050" d="M28.35 5.138h-3.194c-0.089 0-0.163-0.074-0.163-0.163v-0.693c0-0.089 0.074-0.163 0.163-0.163h3.194c0.089 0 0.163 0.074 0.163 0.163v0.693c0 0.089-0.071 0.163-0.163 0.163z"></path>
<path fill="#ff5050" d="M25.108 23.292h-1.064c-0.089 0-0.163-0.074-0.163-0.163v-0.693c0-0.089 0.074-0.163 0.163-0.163h1.064c0.089 0 0.163 0.074 0.163 0.163v0.693c0 0.089-0.071 0.163-0.163 0.163z"></path>
<path fill="#ff5050" d="M27.33 23.292h-1.064c-0.089 0-0.163-0.074-0.163-0.163v-0.693c0-0.089 0.074-0.163 0.163-0.163h1.064c0.089 0 0.163 0.074 0.163 0.163v0.693c0 0.089-0.071 0.163-0.163 0.163z"></path>
<path fill="#ff5050" d="M27.404 28.388h-1.212c-0.050 0-0.089-0.039-0.089-0.089v-0.841c0-0.050 0.039-0.089 0.089-0.089h1.212c0.050 0 0.089 0.039 0.089 0.089v0.841c0 0.047-0.039 0.089-0.089 0.089z"></path>
<path fill="#ff5050" d="M29.647 23.292h-1.064c-0.089 0-0.163-0.074-0.163-0.163v-0.693c0-0.089 0.074-0.163 0.163-0.163h1.064c0.089 0 0.163 0.074 0.163 0.163v0.693c0 0.089-0.074 0.163-0.163 0.163z"></path>
<path fill="#ff5050" d="M35.553 20.447c-1.215 0-4.053-0.296-5.893-1.473-1.899-1.212-2.782-3.105-3.636-4.933-0.584-1.25-1.135-2.43-1.976-3.345-2.030-2.204-6.519-2.409-6.563-2.412l0.024-0.557c0.047 0.003 1.2 0.050 2.631 0.388 1.944 0.459 3.396 1.2 4.317 2.201 0.901 0.981 1.496 2.255 2.071 3.487 0.821 1.757 1.668 3.573 3.431 4.699 1.123 0.717 2.613 1.058 3.665 1.218 1.241 0.19 2.193 0.178 2.323 0.145l0.133 0.539c-0.083 0.027-0.267 0.041-0.527 0.041z"></path>
<path fill="#ff5050" d="M35.956 17.41c-2.4-0.139-4.311-0.527-6.018-1.224-1.553-0.634-2.975-1.535-4.613-2.919-0.975-0.824-2.569-1.375-4.613-1.597-1.713-0.187-3.138-0.077-3.2-0.074l-0.044-0.554c0.228-0.018 5.594-0.412 8.213 1.801 2.753 2.323 5.321 3.724 10.305 4.012l-0.030 0.554z"></path>
<path fill="#ff5050" d="M17.466 25.357l18.551-0.093 0.002 0.409-18.551 0.093-0.002-0.409z"></path>
<path fill="#ff5050" d="M17.437 25.796l-0.003-0.468h0.030l18.581-0.092 0.003 0.468h-0.030l-18.581 0.092zM17.493 25.387l0.003 0.353 18.492-0.092-0.003-0.353-18.492 0.092z"></path>
<path fill="#ff5050" d="M35.92 31.44h-18.332c-0.459 0-0.836-0.373-0.836-0.836v-29.076c0-0.459 0.373-0.836 0.836-0.836h18.329c0.459 0 0.836 0.373 0.836 0.836v29.076c0 0.459-0.373 0.836-0.833 0.836zM17.588 1.428c-0.056 0-0.104 0.047-0.104 0.104v29.076c0 0.056 0.047 0.104 0.104 0.104h18.329c0.056 0 0.104-0.047 0.104-0.104v-29.079c0-0.056-0.047-0.104-0.104-0.104h-18.329z"></path>
<path fill="#ff5050" d="M35.92 31.57h-18.332c-0.533 0-0.966-0.433-0.966-0.966v-29.076c0-0.533 0.433-0.966 0.966-0.966h18.329c0.533 0 0.966 0.433 0.966 0.966v29.076c0.003 0.533-0.433 0.966-0.963 0.966zM17.588 0.827c-0.388 0-0.702 0.314-0.702 0.702v29.076c0 0.388 0.314 0.702 0.702 0.702h18.329c0.388 0 0.702-0.314 0.702-0.702v-29.076c0-0.388-0.314-0.702-0.702-0.702h-18.329zM35.92 30.839h-18.332c-0.13 0-0.234-0.104-0.234-0.234v-29.076c0-0.13 0.104-0.234 0.234-0.234h18.329c0.13 0 0.234 0.104 0.234 0.234v29.076c0.003 0.13-0.104 0.234-0.231 0.234zM17.618 30.575h18.273v-29.016h-18.273v29.016z"></path>
<path fill="#ff5050" d="M36.687 8.009v0c-0.127 0-0.231-0.104-0.231-0.231v-2.687c0-0.127 0.104-0.231 0.231-0.231v0c0.127 0 0.231 0.104 0.231 0.231v2.687c0 0.127-0.104 0.231-0.231 0.231z"></path>
</svg>
