<!-- Generated by IcoMoon.io -->
<svg version="1.1" xmlns="http://www.w3.org/2000/svg" width="57" height="32" viewBox="0 0 57 32">
<title>Video</title>
<path fill="#ff5050" d="M49.393 2.311v27.407h-40.504v-27.407h40.504zM50.193 0.859h-42.104c-0.361 0-0.652 0.29-0.652 0.652v29.007c0 0.361 0.29 0.652 0.652 0.652h42.104c0.361 0 0.652-0.29 0.652-0.652v-29.007c0-0.361-0.29-0.652-0.652-0.652v0z"></path>
<path fill="#ff5050" d="M10.637 8.667c0.332 0 0.664 0 0.999 0 0.898 0 1.793 0 2.69 0 1.33 0 2.658 0 3.988 0 1.621 0 3.244 0 4.865 0 1.769 0 3.541 0 5.31 0 1.799 0 3.597 0 5.399 0 1.665 0 3.333 0 4.999 0 1.413 0 2.827 0 4.24 0 1.016 0 2.033 0 3.049 0 0.48 0 0.96 0.006 1.44 0 0.021 0 0.041 0 0.062 0 0.465 0 0.91-0.409 0.889-0.889-0.021-0.483-0.391-0.889-0.889-0.889-0.332 0-0.664 0-0.999 0-0.898 0-1.793 0-2.69 0-1.33 0-2.658 0-3.988 0-1.621 0-3.244 0-4.865 0-1.769 0-3.541 0-5.31 0-1.799 0-3.597 0-5.399 0-1.665 0-3.333 0-4.999 0-1.413 0-2.827 0-4.24 0-1.016 0-2.033 0-3.049 0-0.48 0-0.96-0.006-1.44 0-0.021 0-0.041 0-0.062 0-0.465 0-0.91 0.409-0.889 0.889 0.021 0.483 0.391 0.889 0.889 0.889v0z"></path>
<path fill="#ff5050" d="M10.637 25.407c0.332 0 0.664 0 0.999 0 0.898 0 1.793 0 2.69 0 1.33 0 2.658 0 3.988 0 1.621 0 3.244 0 4.865 0 1.769 0 3.541 0 5.31 0 1.799 0 3.597 0 5.399 0 1.665 0 3.333 0 4.999 0 1.413 0 2.827 0 4.24 0 1.016 0 2.033 0 3.049 0 0.48 0 0.96 0.006 1.44 0 0.021 0 0.041 0 0.062 0 0.465 0 0.91-0.409 0.889-0.889-0.021-0.483-0.391-0.889-0.889-0.889-0.332 0-0.664 0-0.999 0-0.898 0-1.793 0-2.69 0-1.33 0-2.658 0-3.988 0-1.621 0-3.244 0-4.865 0-1.769 0-3.541 0-5.31 0-1.799 0-3.597 0-5.399 0-1.665 0-3.333 0-4.999 0-1.413 0-2.827 0-4.24 0-1.016 0-2.033 0-3.049 0-0.48 0-0.96-0.006-1.44 0-0.021 0-0.041 0-0.062 0-0.465 0-0.91 0.409-0.889 0.889 0.021 0.483 0.391 0.889 0.889 0.889v0z"></path>
<path fill="#ff5050" d="M12.178 7.23h1.63v17.57h-1.63v-17.57z"></path>
<path fill="#ff5050" d="M44.207 7.793h1.63v17.57h-1.63v-17.57z"></path>
<path fill="#ff5050" d="M35.556 11.484l6.593 4.533-6.563 4.474z"></path>
<path fill="#ff5050" d="M24.711 20.859h-8.267c-0.163 0-0.296-0.133-0.296-0.296v-9.126c0-0.163 0.133-0.296 0.296-0.296h8.267c0.163 0 0.296 0.133 0.296 0.296v9.126c0 0.163-0.133 0.296-0.296 0.296z"></path>
<path fill="#ff5050" d="M29.807 11.852l-3.585 2.071v4.139l3.585 2.068z"></path>
<path fill="#ff5050" d="M10.696 3.644c0 0.483 0 0.969 0 1.452 0 0.279 0.246 0.545 0.533 0.533 0.29-0.012 0.533-0.234 0.533-0.533 0-0.483 0-0.969 0-1.452 0-0.279-0.246-0.545-0.533-0.533-0.29 0.012-0.533 0.234-0.533 0.533v0z"></path>
<path fill="#ff5050" d="M14.711 3.644c0 0.483 0 0.969 0 1.452 0 0.279 0.246 0.545 0.533 0.533 0.29-0.012 0.533-0.234 0.533-0.533 0-0.483 0-0.969 0-1.452 0-0.279-0.246-0.545-0.533-0.533-0.29 0.012-0.533 0.234-0.533 0.533v0z"></path>
<path fill="#ff5050" d="M18.726 3.644c0 0.483 0 0.969 0 1.452 0 0.279 0.246 0.545 0.533 0.533 0.29-0.012 0.533-0.234 0.533-0.533 0-0.483 0-0.969 0-1.452 0-0.279-0.246-0.545-0.533-0.533-0.29 0.012-0.533 0.234-0.533 0.533v0z"></path>
<path fill="#ff5050" d="M22.741 3.644c0 0.483 0 0.969 0 1.452 0 0.279 0.246 0.545 0.533 0.533 0.29-0.012 0.533-0.234 0.533-0.533 0-0.483 0-0.969 0-1.452 0-0.279-0.246-0.545-0.533-0.533-0.29 0.012-0.533 0.234-0.533 0.533v0z"></path>
<path fill="#ff5050" d="M26.756 3.644c0 0.483 0 0.969 0 1.452 0 0.279 0.246 0.545 0.533 0.533 0.29-0.012 0.533-0.234 0.533-0.533 0-0.483 0-0.969 0-1.452 0-0.279-0.246-0.545-0.533-0.533-0.29 0.012-0.533 0.234-0.533 0.533v0z"></path>
<path fill="#ff5050" d="M30.77 3.644c0 0.483 0 0.969 0 1.452 0 0.279 0.246 0.545 0.533 0.533 0.29-0.012 0.533-0.234 0.533-0.533 0-0.483 0-0.969 0-1.452 0-0.279-0.246-0.545-0.533-0.533-0.29 0.012-0.533 0.234-0.533 0.533v0z"></path>
<path fill="#ff5050" d="M34.785 3.644c0 0.483 0 0.969 0 1.452 0 0.279 0.246 0.545 0.533 0.533 0.29-0.012 0.533-0.234 0.533-0.533 0-0.483 0-0.969 0-1.452 0-0.279-0.246-0.545-0.533-0.533-0.29 0.012-0.533 0.234-0.533 0.533v0z"></path>
<path fill="#ff5050" d="M38.8 3.644c0 0.483 0 0.969 0 1.452 0 0.279 0.246 0.545 0.533 0.533 0.29-0.012 0.533-0.234 0.533-0.533 0-0.483 0-0.969 0-1.452 0-0.279-0.246-0.545-0.533-0.533-0.29 0.012-0.533 0.234-0.533 0.533v0z"></path>
<path fill="#ff5050" d="M42.815 3.644c0 0.483 0 0.969 0 1.452 0 0.279 0.246 0.545 0.533 0.533 0.29-0.012 0.533-0.234 0.533-0.533 0-0.483 0-0.969 0-1.452 0-0.279-0.246-0.545-0.533-0.533-0.29 0.012-0.533 0.234-0.533 0.533v0z"></path>
<path fill="#ff5050" d="M46.83 3.644c0 0.483 0 0.969 0 1.452 0 0.279 0.246 0.545 0.533 0.533 0.29-0.012 0.533-0.234 0.533-0.533 0-0.483 0-0.969 0-1.452 0-0.279-0.246-0.545-0.533-0.533-0.29 0.012-0.533 0.234-0.533 0.533v0z"></path>
<path fill="#ff5050" d="M10.696 26.904c0 0.483 0 0.969 0 1.452 0 0.279 0.246 0.545 0.533 0.533 0.29-0.012 0.533-0.234 0.533-0.533 0-0.483 0-0.969 0-1.452 0-0.279-0.246-0.545-0.533-0.533-0.29 0.012-0.533 0.234-0.533 0.533v0z"></path>
<path fill="#ff5050" d="M14.711 26.904c0 0.483 0 0.969 0 1.452 0 0.279 0.246 0.545 0.533 0.533 0.29-0.012 0.533-0.234 0.533-0.533 0-0.483 0-0.969 0-1.452 0-0.279-0.246-0.545-0.533-0.533-0.29 0.012-0.533 0.234-0.533 0.533v0z"></path>
<path fill="#ff5050" d="M18.726 26.904c0 0.483 0 0.969 0 1.452 0 0.279 0.246 0.545 0.533 0.533 0.29-0.012 0.533-0.234 0.533-0.533 0-0.483 0-0.969 0-1.452 0-0.279-0.246-0.545-0.533-0.533-0.29 0.012-0.533 0.234-0.533 0.533v0z"></path>
<path fill="#ff5050" d="M22.741 26.904c0 0.483 0 0.969 0 1.452 0 0.279 0.246 0.545 0.533 0.533 0.29-0.012 0.533-0.234 0.533-0.533 0-0.483 0-0.969 0-1.452 0-0.279-0.246-0.545-0.533-0.533-0.29 0.012-0.533 0.234-0.533 0.533v0z"></path>
<path fill="#ff5050" d="M26.756 26.904c0 0.483 0 0.969 0 1.452 0 0.279 0.246 0.545 0.533 0.533 0.29-0.012 0.533-0.234 0.533-0.533 0-0.483 0-0.969 0-1.452 0-0.279-0.246-0.545-0.533-0.533-0.29 0.012-0.533 0.234-0.533 0.533v0z"></path>
<path fill="#ff5050" d="M30.77 26.904c0 0.483 0 0.969 0 1.452 0 0.279 0.246 0.545 0.533 0.533 0.29-0.012 0.533-0.234 0.533-0.533 0-0.483 0-0.969 0-1.452 0-0.279-0.246-0.545-0.533-0.533-0.29 0.012-0.533 0.234-0.533 0.533v0z"></path>
<path fill="#ff5050" d="M34.785 26.904c0 0.483 0 0.969 0 1.452 0 0.279 0.246 0.545 0.533 0.533 0.29-0.012 0.533-0.234 0.533-0.533 0-0.483 0-0.969 0-1.452 0-0.279-0.246-0.545-0.533-0.533-0.29 0.012-0.533 0.234-0.533 0.533v0z"></path>
<path fill="#ff5050" d="M38.8 26.904c0 0.483 0 0.969 0 1.452 0 0.279 0.246 0.545 0.533 0.533 0.29-0.012 0.533-0.234 0.533-0.533 0-0.483 0-0.969 0-1.452 0-0.279-0.246-0.545-0.533-0.533-0.29 0.012-0.533 0.234-0.533 0.533v0z"></path>
<path fill="#ff5050" d="M42.815 26.904c0 0.483 0 0.969 0 1.452 0 0.279 0.246 0.545 0.533 0.533 0.29-0.012 0.533-0.234 0.533-0.533 0-0.483 0-0.969 0-1.452 0-0.279-0.246-0.545-0.533-0.533-0.29 0.012-0.533 0.234-0.533 0.533v0z"></path>
<path fill="#ff5050" d="M46.83 26.904c0 0.483 0 0.969 0 1.452 0 0.279 0.246 0.545 0.533 0.533 0.29-0.012 0.533-0.234 0.533-0.533 0-0.483 0-0.969 0-1.452 0-0.279-0.246-0.545-0.533-0.533-0.29 0.012-0.533 0.234-0.533 0.533v0z"></path>
</svg>
