<!-- Generated by IcoMoon.io -->
<svg version="1.1" xmlns="http://www.w3.org/2000/svg" width="57" height="32" viewBox="0 0 57 32">
<title>webDevelopment</title>
<path fill="#ff5050" d="M14.518 5.594l0.001-0.356 29.63 0.096-0.001 0.356-29.63-0.096z"></path>
<path fill="#ff5050" stroke="#ff5050" stroke-width="0.9185" stroke-miterlimit="10" stroke-linecap="butt" stroke-linejoin="miter" d="M44.326 31.132h-29.985v-29.861h29.985v29.861zM14.696 30.776h29.274v-29.15h-29.274v29.15z"></path>
<path fill="#ff5050" stroke="#ff5050" stroke-width="0.4444" stroke-miterlimit="10" stroke-linecap="butt" stroke-linejoin="miter" d="M15.953 2.883h1.147v1.147h-1.147v-1.147z"></path>
<path fill="#ff5050" stroke="#ff5050" stroke-width="0.4444" stroke-miterlimit="10" stroke-linecap="butt" stroke-linejoin="miter" d="M16.524 7.473h1.147v1.147h-1.147v-1.147z"></path>
<path fill="#ff5050" stroke="#ff5050" stroke-width="0.4444" stroke-miterlimit="10" stroke-linecap="butt" stroke-linejoin="miter" d="M40.993 7.473h1.147v1.147h-1.147v-1.147z"></path>
<path fill="#ff5050" stroke="#ff5050" stroke-width="0.4444" stroke-miterlimit="10" stroke-linecap="butt" stroke-linejoin="miter" d="M27.23 7.95h4.204v1.147h-4.204v-1.147z"></path>
<path fill="#ff5050" stroke="#ff5050" stroke-width="0.4444" stroke-miterlimit="10" stroke-linecap="butt" stroke-linejoin="miter" d="M16.524 27.831h1.147v1.147h-1.147v-1.147z"></path>
<path fill="#ff5050" stroke="#ff5050" stroke-width="0.4444" stroke-miterlimit="10" stroke-linecap="butt" stroke-linejoin="miter" d="M40.993 27.831h1.147v1.147h-1.147v-1.147z"></path>
<path fill="#ff5050" stroke="#ff5050" stroke-width="0.4444" stroke-miterlimit="10" stroke-linecap="butt" stroke-linejoin="miter" d="M27.23 27.351h4.204v1.147h-4.204v-1.147z"></path>
<path fill="#ff5050" stroke="#ff5050" stroke-width="0.4444" stroke-miterlimit="10" stroke-linecap="butt" stroke-linejoin="miter" d="M16.047 13.588h1.147v1.147h-1.147v-1.147z"></path>
<path fill="#ff5050" stroke="#ff5050" stroke-width="0.4444" stroke-miterlimit="10" stroke-linecap="butt" stroke-linejoin="miter" d="M16.047 15.594h1.147v1.147h-1.147v-1.147z"></path>
<path fill="#ff5050" stroke="#ff5050" stroke-width="0.4444" stroke-miterlimit="10" stroke-linecap="butt" stroke-linejoin="miter" d="M16.047 17.603h1.147v1.147h-1.147v-1.147z"></path>
<path fill="#ff5050" stroke="#ff5050" stroke-width="0.4444" stroke-miterlimit="10" stroke-linecap="butt" stroke-linejoin="miter" d="M16.047 19.707h1.147v1.147h-1.147v-1.147z"></path>
<path fill="#ff5050" stroke="#ff5050" stroke-width="0.4444" stroke-miterlimit="10" stroke-linecap="butt" stroke-linejoin="miter" d="M18.056 15.594h1.147v1.147h-1.147v-1.147z"></path>
<path fill="#ff5050" stroke="#ff5050" stroke-width="0.4444" stroke-miterlimit="10" stroke-linecap="butt" stroke-linejoin="miter" d="M18.056 17.603h1.147v1.147h-1.147v-1.147z"></path>
<path fill="#ff5050" stroke="#ff5050" stroke-width="0.4444" stroke-miterlimit="10" stroke-linecap="butt" stroke-linejoin="miter" d="M20.062 17.603h1.147v1.147h-1.147v-1.147z"></path>
<path fill="#ff5050" stroke="#ff5050" stroke-width="0.4444" stroke-miterlimit="10" stroke-linecap="butt" stroke-linejoin="miter" d="M18.056 19.707h1.147v1.147h-1.147v-1.147z"></path>
<path fill="#ff5050" stroke="#ff5050" stroke-width="0.4444" stroke-miterlimit="10" stroke-linecap="butt" stroke-linejoin="miter" d="M16.047 21.713h1.147v1.147h-1.147v-1.147z"></path>
<path fill="#ff5050" stroke="#ff5050" stroke-width="0.4444" stroke-miterlimit="10" stroke-linecap="butt" stroke-linejoin="miter" d="M42.618 22.86h-1.147v-1.147h1.147v1.147z"></path>
<path fill="#ff5050" stroke="#ff5050" stroke-width="0.4444" stroke-miterlimit="10" stroke-linecap="butt" stroke-linejoin="miter" d="M42.618 20.851h-1.147v-1.147h1.147v1.147z"></path>
<path fill="#ff5050" stroke="#ff5050" stroke-width="0.4444" stroke-miterlimit="10" stroke-linecap="butt" stroke-linejoin="miter" d="M42.618 18.846h-1.147v-1.147h1.147v1.147z"></path>
<path fill="#ff5050" stroke="#ff5050" stroke-width="0.4444" stroke-miterlimit="10" stroke-linecap="butt" stroke-linejoin="miter" d="M42.618 16.744h-1.147v-1.147h1.147v1.147z"></path>
<path fill="#ff5050" stroke="#ff5050" stroke-width="0.4444" stroke-miterlimit="10" stroke-linecap="butt" stroke-linejoin="miter" d="M40.613 20.851h-1.147v-1.147h1.147v1.147z"></path>
<path fill="#ff5050" stroke="#ff5050" stroke-width="0.4444" stroke-miterlimit="10" stroke-linecap="butt" stroke-linejoin="miter" d="M40.613 18.846h-1.147v-1.147h1.147v1.147z"></path>
<path fill="#ff5050" stroke="#ff5050" stroke-width="0.4444" stroke-miterlimit="10" stroke-linecap="butt" stroke-linejoin="miter" d="M38.604 18.846h-1.147v-1.147h1.147v1.147z"></path>
<path fill="#ff5050" stroke="#ff5050" stroke-width="0.4444" stroke-miterlimit="10" stroke-linecap="butt" stroke-linejoin="miter" d="M40.613 16.744h-1.147v-1.147h1.147v1.147z"></path>
<path fill="#ff5050" stroke="#ff5050" stroke-width="0.4444" stroke-miterlimit="10" stroke-linecap="butt" stroke-linejoin="miter" d="M42.618 14.736h-1.147v-1.147h1.147v1.147z"></path>
<path fill="#ff5050" stroke="#ff5050" stroke-width="0.4444" stroke-miterlimit="10" stroke-linecap="butt" stroke-linejoin="miter" d="M18.056 2.883h1.147v1.147h-1.147v-1.147z"></path>
<path fill="#ff5050" stroke="#ff5050" stroke-width="0.4444" stroke-miterlimit="10" stroke-linecap="butt" stroke-linejoin="miter" d="M20.062 2.883h1.147v1.147h-1.147v-1.147z"></path>
<path fill="#ff5050" stroke="#ff5050" stroke-width="0.4444" stroke-miterlimit="10" stroke-linecap="butt" stroke-linejoin="miter" d="M40.516 2.883h2.104v1.147h-2.104v-1.147z"></path>
<path fill="#ff5050" d="M29.333 19.979c-0.993 0-1.801-0.809-1.801-1.801s0.809-1.801 1.801-1.801 1.801 0.809 1.801 1.801-0.809 1.801-1.801 1.801zM29.333 16.729c-0.797 0-1.446 0.649-1.446 1.446s0.649 1.446 1.446 1.446 1.446-0.649 1.446-1.446-0.649-1.446-1.446-1.446z"></path>
<path fill="#ff5050" d="M22.524 16.646c0 0.895 0 1.787 0 2.681 0 0.124 0 0.252 0 0.376 0 0.145 0.121 0.267 0.267 0.267 0.557 0 1.114 0 1.671 0-0.077-0.044-0.154-0.089-0.231-0.133 0.157 0.287 0.317 0.575 0.474 0.859 0.015-0.107 0.027-0.216 0.041-0.323-0.367 0.367-0.732 0.732-1.099 1.099-0.101 0.101-0.101 0.276 0 0.376 0.584 0.584 1.17 1.17 1.754 1.754 0.083 0.083 0.169 0.169 0.252 0.252 0.101 0.101 0.276 0.101 0.376 0 0.35-0.35 0.702-0.702 1.052-1.052-0.124 0-0.252 0-0.376 0 0.32 0.32 0.637 0.637 0.957 0.957-0.027-0.062-0.053-0.124-0.077-0.19 0 0.424 0 0.847 0 1.271 0 0.145 0.121 0.267 0.267 0.267 0.847 0.006 1.698 0.012 2.545 0.018 0.124 0 0.246 0.003 0.37 0.003 0.145 0 0.267-0.124 0.267-0.267 0-0.625 0-1.25 0-1.879-0.044 0.077-0.089 0.154-0.133 0.231 0.32-0.172 0.637-0.341 0.957-0.513-0.107-0.015-0.216-0.027-0.323-0.041 0.447 0.447 0.892 0.892 1.339 1.339 0.101 0.101 0.276 0.101 0.376 0 0.59-0.59 1.179-1.179 1.766-1.766 0.083-0.083 0.169-0.169 0.252-0.252 0.101-0.101 0.101-0.276 0-0.376-0.447-0.447-0.892-0.892-1.339-1.339 0 0.124 0 0.252 0 0.376 0.252-0.252 0.504-0.504 0.753-0.753-0.062 0.027-0.124 0.053-0.19 0.077 0.492 0 0.984 0 1.479 0 0.145 0 0.267-0.121 0.267-0.267 0-0.895 0-1.787 0-2.681 0-0.124 0-0.252 0-0.376 0-0.145-0.121-0.267-0.267-0.267-0.643 0-1.286 0-1.932 0 0.086 0.065 0.172 0.13 0.258 0.196-0.104-0.255-0.207-0.51-0.311-0.764-0.024 0.086-0.044 0.172-0.068 0.261 0.424-0.424 0.844-0.844 1.268-1.268 0.101-0.101 0.101-0.276 0-0.376-0.599-0.599-1.197-1.197-1.793-1.793-0.086-0.086-0.175-0.175-0.261-0.261-0.101-0.101-0.276-0.101-0.376 0-0.453 0.453-0.91 0.91-1.363 1.363 0.124 0 0.252 0 0.376 0-0.255-0.255-0.51-0.51-0.764-0.764 0.027 0.062 0.053 0.124 0.077 0.19 0-0.495 0-0.987 0-1.481 0-0.145-0.121-0.267-0.267-0.267-0.877 0-1.754 0-2.631 0-0.127 0-0.252 0-0.379 0-0.145 0-0.267 0.121-0.267 0.267 0 0.542 0 1.084 0 1.624 0.027-0.062 0.053-0.124 0.077-0.19-0.24 0.24-0.477 0.477-0.717 0.717 0.124 0 0.252 0 0.376 0-0.43-0.43-0.859-0.859-1.289-1.289-0.101-0.101-0.276-0.101-0.376 0-0.593 0.593-1.185 1.185-1.778 1.778-0.086 0.086-0.172 0.172-0.258 0.258-0.101 0.101-0.101 0.276 0 0.376 0.382 0.382 0.764 0.764 1.147 1.147 0-0.124 0-0.252 0-0.376-0.243 0.243-0.489 0.489-0.732 0.732 0.062-0.027 0.124-0.053 0.19-0.077-0.462 0-0.924 0.003-1.387 0.003-0.344 0-0.344 0.533 0 0.533 0.447 0 0.895 0.006 1.342-0.003 0.216-0.006 0.344-0.19 0.486-0.332 0.16-0.16 0.32-0.32 0.477-0.477 0.101-0.101 0.101-0.276 0-0.376-0.382-0.382-0.764-0.764-1.147-1.147 0 0.124 0 0.252 0 0.376 0.593-0.593 1.185-1.185 1.778-1.778 0.086-0.086 0.172-0.172 0.258-0.258-0.124 0-0.252 0-0.376 0 0.43 0.43 0.859 0.859 1.289 1.289 0.101 0.101 0.276 0.101 0.376 0 0.127-0.127 0.252-0.252 0.379-0.379 0.083-0.083 0.166-0.166 0.249-0.249 0.062-0.062 0.133-0.121 0.157-0.207 0.036-0.133 0.009-0.302 0.009-0.436 0-0.255 0-0.507 0-0.761 0-0.166 0-0.332 0-0.498-0.089 0.089-0.178 0.178-0.267 0.267 0.877 0 1.754 0 2.631 0 0.127 0 0.252 0 0.379 0-0.089-0.089-0.178-0.178-0.267-0.267 0 0.376 0 0.756 0 1.132 0 0.136-0.039 0.359 0.036 0.486 0.086 0.148 0.261 0.276 0.382 0.394 0.142 0.142 0.281 0.281 0.424 0.424 0.101 0.101 0.276 0.101 0.376 0 0.453-0.453 0.91-0.91 1.363-1.363-0.124 0-0.252 0-0.376 0 0.599 0.599 1.197 1.197 1.793 1.793 0.086 0.086 0.175 0.175 0.261 0.261 0-0.124 0-0.252 0-0.376-0.424 0.424-0.844 0.844-1.268 1.268-0.062 0.062-0.104 0.175-0.068 0.261 0.104 0.255 0.207 0.51 0.311 0.764 0.044 0.11 0.13 0.196 0.258 0.196 0.643 0 1.286 0 1.932 0-0.089-0.089-0.178-0.178-0.267-0.267 0 0.895 0 1.787 0 2.681 0 0.124 0 0.252 0 0.376 0.089-0.089 0.178-0.178 0.267-0.267-0.376 0-0.756 0-1.132 0-0.136 0-0.356-0.036-0.48 0.036-0.142 0.083-0.264 0.252-0.379 0.367-0.142 0.142-0.287 0.287-0.43 0.43-0.101 0.101-0.101 0.276 0 0.376 0.447 0.447 0.892 0.892 1.339 1.339 0-0.124 0-0.252 0-0.376-0.59 0.59-1.179 1.179-1.766 1.766-0.083 0.083-0.169 0.169-0.252 0.252 0.124 0 0.252 0 0.376 0-0.447-0.447-0.892-0.892-1.339-1.339-0.086-0.086-0.219-0.098-0.323-0.041-0.32 0.172-0.637 0.341-0.957 0.513-0.083 0.044-0.133 0.139-0.133 0.231 0 0.625 0 1.25 0 1.879 0.089-0.089 0.178-0.178 0.267-0.267-0.847-0.006-1.698-0.012-2.545-0.018-0.124 0-0.246-0.003-0.37-0.003 0.089 0.089 0.178 0.178 0.267 0.267 0-0.388 0-0.776 0-1.164 0-0.071 0.006-0.139-0.024-0.207-0.027-0.065-0.083-0.113-0.13-0.163-0.16-0.16-0.323-0.323-0.483-0.483-0.13-0.13-0.264-0.264-0.394-0.394-0.101-0.101-0.276-0.101-0.376 0-0.35 0.35-0.702 0.702-1.052 1.052 0.124 0 0.252 0 0.376 0-0.584-0.584-1.17-1.17-1.754-1.754-0.083-0.083-0.169-0.169-0.252-0.252 0 0.124 0 0.252 0 0.376 0.367-0.367 0.732-0.732 1.099-1.099 0.086-0.086 0.098-0.219 0.041-0.323-0.157-0.287-0.317-0.575-0.474-0.859-0.044-0.083-0.139-0.133-0.231-0.133-0.557 0-1.114 0-1.671 0 0.089 0.089 0.178 0.178 0.267 0.267 0-0.895 0-1.787 0-2.681 0-0.124 0-0.252 0-0.376 0.006-0.35-0.527-0.353-0.527-0.009z"></path>
</svg>
