<!-- Generated by IcoMoon.io -->
<svg version="1.1" xmlns="http://www.w3.org/2000/svg" width="57" height="32" viewBox="0 0 57 32">
<title>3DCube</title>
<path fill="#ff5050" d="M32.273 9.95v20.361h-20.361v-20.361h20.361zM33.665 8.557h-23.147v23.147h23.147v-23.147z"></path>
<path fill="#ff5050" d="M10.517 8.551l7.502-7.77 1.002 0.967-7.502 7.77-1.002-0.967z"></path>
<path fill="#ff5050" d="M32.44 8.649l7.503-7.503 0.985 0.985-7.503 7.503-0.985-0.985z"></path>
<path fill="#ff5050" d="M10.493 30.668l7.44-7.531 0.991 0.979-7.44 7.531-0.991-0.979z"></path>
<path fill="#ff5050" d="M32.726 30.735l7.596-7.56 0.982 0.987-7.596 7.56-0.982-0.987z"></path>
<path fill="#ff5050" d="M17.834 1.176h1.393v22.815h-1.393v-22.815z"></path>
<path fill="#ff5050" d="M39.964 1.41h1.393v22.735h-1.393v-22.735z"></path>
<path fill="#ff5050" d="M18.012 0.77h23.342v1.393h-23.342v-1.393z"></path>
<path fill="#ff5050" d="M18.341 22.957h22.696v1.393h-22.696v-1.393z"></path>
</svg>
