<!-- Generated by IcoMoon.io -->
<svg version="1.1" xmlns="http://www.w3.org/2000/svg" width="57" height="32" viewBox="0 0 57 32">
<title>icon_3DKonfigurator</title>
<path fill="#ff5050" d="M42.578 1.63c0.033 0 0.059 0.027 0.059 0.059v29.037c0 0.033-0.027 0.059-0.059 0.059h-29.037c-0.033 0-0.059-0.027-0.059-0.059v-29.037c0-0.033 0.027-0.059 0.059-0.059h29.037zM42.578 0.889h-29.037c-0.441 0-0.8 0.359-0.8 0.8v29.037c0 0.441 0.359 0.8 0.8 0.8h29.037c0.441 0 0.8-0.359 0.8-0.8v-29.037c0-0.441-0.359-0.8-0.8-0.8v0z"></path>
<path fill="#ff5050" d="M17.185 6.133h-0.889c-0.622 0-1.126-0.504-1.126-1.126v-0.889c0-0.622 0.504-1.126 1.126-1.126h0.889c0.622 0 1.126 0.504 1.126 1.126v0.889c0 0.622-0.504 1.126-1.126 1.126z"></path>
<path fill="#fff" d="M17.185 5.956c-0.243 0-0.489 0-0.732 0-0.326 0-0.619-0.056-0.853-0.305-0.231-0.246-0.252-0.542-0.252-0.859 0-0.249-0.018-0.504 0.003-0.753 0.036-0.427 0.37-0.782 0.791-0.853 0.249-0.041 0.521-0.012 0.773-0.012 0.308 0 0.601 0 0.859 0.201 0.273 0.216 0.361 0.524 0.361 0.856 0 0.284 0.018 0.575-0.003 0.859-0.041 0.489-0.465 0.856-0.948 0.865-0.228 0.003-0.228 0.359 0 0.356 0.516-0.009 0.99-0.308 1.194-0.785 0.139-0.32 0.11-0.667 0.11-1.007 0-0.361 0.015-0.714-0.169-1.040-0.234-0.415-0.676-0.658-1.147-0.664-0.284-0.003-0.569-0.003-0.853 0-0.459 0.003-0.883 0.222-1.132 0.613-0.201 0.32-0.199 0.67-0.199 1.031 0 0.338-0.036 0.702 0.092 1.025 0.201 0.504 0.684 0.821 1.221 0.827 0.293 0.003 0.587 0 0.88 0 0.231 0 0.231-0.356 0.003-0.356z"></path>
<path fill="#ff5050" d="M20.222 4.933c0.599 0 1.194 0 1.793 0 1.434 0 2.868 0 4.302 0 1.733 0 3.467 0 5.2 0 1.49 0 2.981 0 4.471 0 0.729 0 1.461 0.021 2.19 0 0.009 0 0.021 0 0.030 0 0.456 0 0.459-0.711 0-0.711-0.599 0-1.194 0-1.793 0-1.434 0-2.868 0-4.302 0-1.733 0-3.467 0-5.2 0-1.49 0-2.981 0-4.471 0-0.729 0-1.461-0.021-2.19 0-0.009 0-0.021 0-0.030 0-0.456 0-0.459 0.711 0 0.711v0z"></path>
<path fill="#ff5050" d="M17.2 9.644h-0.889c-0.622 0-1.126-0.504-1.126-1.126v-0.889c0-0.622 0.504-1.126 1.126-1.126h0.889c0.622 0 1.126 0.504 1.126 1.126v0.889c0 0.622-0.504 1.126-1.126 1.126z"></path>
<path fill="#fff" d="M17.2 9.467c-0.243 0-0.489 0-0.732 0-0.326 0-0.619-0.056-0.853-0.305-0.231-0.246-0.252-0.542-0.252-0.859 0-0.249-0.018-0.504 0.003-0.753 0.036-0.427 0.37-0.782 0.791-0.853 0.249-0.041 0.521-0.012 0.773-0.012 0.308 0 0.601 0 0.859 0.201 0.273 0.216 0.361 0.524 0.361 0.856 0 0.284 0.018 0.575-0.003 0.859-0.041 0.489-0.465 0.856-0.948 0.865-0.228 0.003-0.228 0.359 0 0.356 0.516-0.009 0.99-0.308 1.194-0.785 0.139-0.32 0.11-0.667 0.11-1.007 0-0.361 0.015-0.714-0.169-1.040-0.234-0.415-0.676-0.658-1.147-0.664-0.284-0.003-0.569-0.003-0.853 0-0.459 0.003-0.883 0.222-1.132 0.613-0.201 0.32-0.199 0.67-0.199 1.031 0 0.338-0.036 0.702 0.092 1.025 0.201 0.504 0.684 0.821 1.221 0.827 0.293 0.003 0.587 0 0.88 0 0.231 0 0.231-0.356 0.003-0.356z"></path>
<path fill="#ff5050" d="M20.237 8.444c0.599 0 1.194 0 1.793 0 1.434 0 2.868 0 4.302 0 1.733 0 3.467 0 5.2 0 1.49 0 2.981 0 4.471 0 0.729 0 1.461 0.021 2.19 0 0.009 0 0.021 0 0.030 0 0.456 0 0.459-0.711 0-0.711-0.599 0-1.194 0-1.793 0-1.434 0-2.868 0-4.302 0-1.733 0-3.467 0-5.2 0-1.49 0-2.981 0-4.471 0-0.729 0-1.461-0.021-2.19 0-0.009 0-0.021 0-0.030 0-0.456 0-0.459 0.711 0 0.711v0z"></path>
<path fill="#ff5050" d="M22.044 7.259c0 0.593 0 1.185 0 1.778 0 0.456 0.711 0.459 0.711 0 0-0.593 0-1.185 0-1.778 0-0.456-0.711-0.459-0.711 0v0z"></path>
<path fill="#ff5050" d="M28.622 3.674c0 0.593 0 1.185 0 1.778 0 0.456 0.711 0.459 0.711 0 0-0.593 0-1.185 0-1.778 0-0.456-0.711-0.459-0.711 0v0z"></path>
<path fill="#ff5050" d="M18.904 19.022c0 0.982-0.796 1.778-1.778 1.778s-1.778-0.796-1.778-1.778c0-0.982 0.796-1.778 1.778-1.778s1.778 0.796 1.778 1.778z"></path>
<path fill="#ff5050" d="M32.77 24.504c0 0.982-0.796 1.778-1.778 1.778s-1.778-0.796-1.778-1.778c0-0.982 0.796-1.778 1.778-1.778s1.778 0.796 1.778 1.778z"></path>
<path fill="#ff5050" d="M40.474 26.993c0 0.982-0.796 1.778-1.778 1.778s-1.778-0.796-1.778-1.778c0-0.982 0.796-1.778 1.778-1.778s1.778 0.796 1.778 1.778z"></path>
<path fill="#ff5050" d="M25.363 26.993c0 0.982-0.796 1.778-1.778 1.778s-1.778-0.796-1.778-1.778c0-0.982 0.796-1.778 1.778-1.778s1.778 0.796 1.778 1.778z"></path>
<path fill="#ff5050" d="M19.612 19.090c1.668 0.536 2.462 2.335 2.927 3.884 0.11 0.37 0.204 0.744 0.299 1.12 0.053 0.222 0.397 0.127 0.344-0.095-0.391-1.588-0.892-3.336-2.142-4.474-0.385-0.35-0.833-0.616-1.327-0.776-0.225-0.074-0.317 0.27-0.101 0.341v0z"></path>
<path fill="#ff5050" d="M25.372 25.396c0.172-0.53 0.471-1.043 0.919-1.39 0.441-0.341 0.99-0.456 1.529-0.323 0.222 0.053 0.317-0.287 0.095-0.344-0.631-0.154-1.28-0.033-1.804 0.359-0.527 0.397-0.88 0.981-1.081 1.603-0.071 0.219 0.273 0.311 0.344 0.095v0z"></path>
<path fill="#ff5050" d="M34.006 23.784c1.064-0.877 2.942-0.519 3.544 0.735 0.098 0.207 0.406 0.027 0.308-0.181-0.554-1.156-2.015-1.615-3.197-1.28-0.332 0.095-0.637 0.252-0.904 0.474-0.178 0.148 0.074 0.397 0.249 0.252v0z"></path>
<path fill="#ff5050" d="M23.719 23.778l-0.424 1.25-1.004-0.839z"></path>
<path fill="#ff5050" d="M28.095 22.844l0.61 1.167-1.301 0.148z"></path>
<path fill="#ff5050" d="M37.84 23.39l0.030 1.321-1.233-0.447z"></path>
<path fill="#ff5050" d="M26.015 12.859v4.184h-4.187v-4.184h4.187zM26.667 12.207h-5.49v5.487h5.49v-5.487z"></path>
<path fill="#ff5050" d="M21.188 12.18l1.78-1.942 0.481 0.44-1.78 1.942-0.481-0.44z"></path>
<path fill="#ff5050" d="M26.112 12.272l1.915-1.834 0.451 0.471-1.915 1.834-0.451-0.471z"></path>
<path fill="#ff5050" d="M21.376 17.118l1.437-1.557 0.479 0.442-1.437 1.557-0.479-0.442z"></path>
<path fill="#ff5050" d="M26.252 17.233l1.942-1.78 0.44 0.48-1.942 1.78-0.44-0.48z"></path>
<path fill="#ff5050" d="M22.75 10.459h0.652v5.41h-0.652v-5.41z"></path>
<path fill="#ff5050" d="M27.997 10.516h0.652v5.39h-0.652v-5.39z"></path>
<path fill="#ff5050" d="M22.993 10.213h5.639v0.652h-5.639v-0.652z"></path>
<path fill="#ff5050" d="M23.031 15.464h5.381v0.652h-5.381v-0.652z"></path>
<path fill="#ff5050" d="M35.351 14.664v2.501h-2.501v-2.501h2.501zM36.003 14.012h-3.804v3.804h3.804v-3.804z"></path>
<path fill="#ff5050" d="M32.194 14.013l1.216-1.482 0.504 0.413-1.216 1.482-0.504-0.413z"></path>
<path fill="#ff5050" d="M35.591 14.023l1.28-1.301 0.465 0.457-1.28 1.301-0.465-0.457z"></path>
<path fill="#ff5050" d="M32.264 17.347l0.995-1.078 0.479 0.442-0.995 1.078-0.479-0.442z"></path>
<path fill="#ff5050" d="M35.611 17.294l1.422-1.214 0.423 0.496-1.422 1.214-0.423-0.496z"></path>
<path fill="#ff5050" d="M33.191 12.8h0.652v3.748h-0.652v-3.748z"></path>
<path fill="#ff5050" d="M36.827 12.839h0.652v3.736h-0.652v-3.736z"></path>
<path fill="#ff5050" d="M33.458 12.53h3.994v0.652h-3.994v-0.652z"></path>
<path fill="#ff5050" d="M33.188 16.059h3.73v0.652h-3.73v-0.652z"></path>
</svg>
