<!-- Generated by IcoMoon.io -->
<svg version="1.1" xmlns="http://www.w3.org/2000/svg" width="57" height="32" viewBox="0 0 57 32">
<title>layer-icon</title>
<path fill="#ff6b6b" d="M28.504 19.212l-16.684-9.348 16.673-9.627 16.447 9.399-16.436 9.576zM15.23 9.843l13.256 7.428 13.079-7.621-13.070-7.467-13.265 7.659z"></path>
<path fill="#ff6b6b" d="M28.504 25.327l-16.684-9.348 6.658-3.843 0.844 1.458-4.092 2.364 13.256 7.425 13.079-7.618-3.893-2.228 0.836-1.464 6.433 3.677z"></path>
<path fill="#ff6b6b" d="M28.504 31.864l-16.684-9.348 6.658-3.846 0.844 1.461-4.092 2.361 13.256 7.428 13.079-7.621-3.893-2.225 0.836-1.464 6.433 3.677z"></path>
<path fill="#ff6b6b" d="M17.79 15.662c-0.207 0-0.373-0.169-0.373-0.373 0-0.207 0.169-0.373 0.373-0.373s0.373 0.166 0.373 0.373c0 0.204-0.166 0.373-0.373 0.373zM17.79 15.004c-0.157 0-0.284 0.127-0.284 0.284s0.127 0.284 0.284 0.284 0.284-0.127 0.284-0.284c0-0.157-0.127-0.284-0.284-0.284z"></path>
<path fill="#ff6b6b" d="M17.79 15.979c-0.379 0-0.69-0.311-0.69-0.69s0.311-0.69 0.69-0.69c0.379 0 0.69 0.311 0.69 0.69s-0.311 0.69-0.69 0.69zM17.79 15.256c-0.018 0-0.033 0.015-0.033 0.033 0 0.036 0.065 0.036 0.065 0 0-0.018-0.015-0.033-0.033-0.033z"></path>
<path fill="#ff6b6b" d="M19.476 17.348c-0.207 0-0.373-0.169-0.373-0.373 0-0.207 0.169-0.373 0.373-0.373s0.373 0.169 0.373 0.373c0 0.207-0.166 0.373-0.373 0.373zM19.476 16.69c-0.157 0-0.284 0.127-0.284 0.284s0.127 0.284 0.284 0.284 0.284-0.127 0.284-0.284-0.127-0.284-0.284-0.284z"></path>
<path fill="#ff6b6b" d="M19.476 17.665c-0.379 0-0.69-0.311-0.69-0.69s0.311-0.69 0.69-0.69c0.379 0 0.69 0.311 0.69 0.69 0 0.382-0.308 0.69-0.69 0.69zM19.476 16.942c-0.018 0-0.033 0.015-0.033 0.033 0 0.036 0.065 0.036 0.065 0 0-0.018-0.015-0.033-0.033-0.033z"></path>
<path fill="#ff6b6b" d="M21.161 19.037c-0.207 0-0.373-0.169-0.373-0.373 0-0.207 0.169-0.373 0.373-0.373 0.207 0 0.373 0.169 0.373 0.373 0.003 0.204-0.166 0.373-0.373 0.373zM21.161 18.379c-0.157 0-0.284 0.127-0.284 0.284s0.127 0.284 0.284 0.284 0.284-0.127 0.284-0.284-0.127-0.284-0.284-0.284z"></path>
<path fill="#ff6b6b" d="M21.161 19.351c-0.379 0-0.69-0.311-0.69-0.69s0.311-0.69 0.69-0.69c0.379 0 0.69 0.311 0.69 0.69 0 0.382-0.308 0.69-0.69 0.69zM21.161 18.628c-0.018 0-0.033 0.015-0.033 0.033 0 0.036 0.065 0.036 0.065 0 0-0.018-0.012-0.033-0.033-0.033z"></path>
<path fill="#ff6b6b" d="M22.954 20.827c-0.207 0-0.373-0.169-0.373-0.373 0-0.207 0.169-0.373 0.373-0.373s0.373 0.169 0.373 0.373c0.003 0.207-0.166 0.373-0.373 0.373zM22.954 20.169c-0.157 0-0.284 0.127-0.284 0.284s0.127 0.284 0.284 0.284 0.284-0.127 0.284-0.284-0.127-0.284-0.284-0.284z"></path>
<path fill="#ff6b6b" d="M22.954 21.144c-0.379 0-0.69-0.311-0.69-0.69s0.311-0.69 0.69-0.69c0.379 0 0.69 0.311 0.69 0.69 0 0.382-0.308 0.69-0.69 0.69zM22.954 20.421c-0.018 0-0.033 0.015-0.033 0.033 0 0.036 0.065 0.036 0.065 0 0-0.018-0.015-0.033-0.033-0.033z"></path>
<path fill="#ff6b6b" d="M21.058 15.769c-0.207 0-0.373-0.169-0.373-0.373s0.169-0.373 0.373-0.373c0.207 0 0.373 0.169 0.373 0.373s-0.169 0.373-0.373 0.373zM21.058 15.111c-0.157 0-0.284 0.127-0.284 0.284s0.127 0.284 0.284 0.284 0.284-0.127 0.284-0.284-0.127-0.284-0.284-0.284z"></path>
<path fill="#ff6b6b" d="M21.058 16.083c-0.379 0-0.69-0.311-0.69-0.69s0.311-0.69 0.69-0.69c0.379 0 0.69 0.311 0.69 0.69 0 0.382-0.311 0.69-0.69 0.69zM21.058 15.36c-0.018 0-0.033 0.015-0.033 0.033 0 0.036 0.065 0.036 0.065 0 0-0.018-0.015-0.033-0.033-0.033z"></path>
<path fill="#ff6b6b" d="M22.954 17.455c-0.207 0-0.373-0.169-0.373-0.373 0-0.207 0.169-0.373 0.373-0.373s0.373 0.169 0.373 0.373c0.003 0.204-0.166 0.373-0.373 0.373zM22.954 16.797c-0.157 0-0.284 0.127-0.284 0.284s0.127 0.284 0.284 0.284 0.284-0.127 0.284-0.284-0.127-0.284-0.284-0.284z"></path>
<path fill="#ff6b6b" d="M22.954 17.772c-0.379 0-0.69-0.311-0.69-0.69s0.311-0.69 0.69-0.69c0.379 0 0.69 0.311 0.69 0.69s-0.308 0.69-0.69 0.69zM22.954 17.049c-0.018 0-0.033 0.015-0.033 0.033 0 0.036 0.065 0.036 0.065 0 0-0.021-0.015-0.033-0.033-0.033z"></path>
<path fill="#ff6b6b" d="M24.643 19.141c-0.207 0-0.373-0.169-0.373-0.373 0-0.207 0.169-0.373 0.373-0.373 0.207 0 0.373 0.169 0.373 0.373 0 0.207-0.169 0.373-0.373 0.373zM24.643 18.483c-0.157 0-0.284 0.127-0.284 0.284s0.127 0.284 0.284 0.284 0.284-0.127 0.284-0.284-0.13-0.284-0.284-0.284z"></path>
<path fill="#ff6b6b" d="M24.643 19.458c-0.379 0-0.69-0.311-0.69-0.69s0.311-0.69 0.69-0.69c0.379 0 0.69 0.311 0.69 0.69s-0.311 0.69-0.69 0.69zM24.643 18.735c-0.018 0-0.033 0.015-0.033 0.033 0 0.036 0.065 0.036 0.065 0-0.003-0.018-0.015-0.033-0.033-0.033z"></path>
<path fill="#ff6b6b" d="M26.433 20.933c-0.207 0-0.373-0.169-0.373-0.373 0-0.207 0.169-0.373 0.373-0.373 0.207 0 0.373 0.169 0.373 0.373 0.003 0.204-0.166 0.373-0.373 0.373zM26.433 20.276c-0.157 0-0.284 0.127-0.284 0.284s0.127 0.284 0.284 0.284 0.284-0.127 0.284-0.284-0.127-0.284-0.284-0.284z"></path>
<path fill="#ff6b6b" d="M26.433 21.25c-0.379 0-0.69-0.311-0.69-0.69s0.311-0.69 0.69-0.69c0.379 0 0.69 0.311 0.69 0.69s-0.308 0.69-0.69 0.69zM26.433 20.527c-0.018 0-0.033 0.015-0.033 0.033 0 0.036 0.065 0.036 0.065 0 0-0.018-0.012-0.033-0.033-0.033z"></path>
<path fill="#ff6b6b" d="M28.121 22.619c-0.207 0-0.373-0.169-0.373-0.373 0-0.207 0.169-0.373 0.373-0.373 0.207 0 0.373 0.169 0.373 0.373 0 0.207-0.169 0.373-0.373 0.373zM28.121 21.961c-0.157 0-0.284 0.127-0.284 0.284s0.127 0.284 0.284 0.284 0.284-0.127 0.284-0.284-0.13-0.284-0.284-0.284z"></path>
<path fill="#ff6b6b" d="M28.121 22.936c-0.379 0-0.69-0.311-0.69-0.69s0.311-0.69 0.69-0.69c0.379 0 0.69 0.311 0.69 0.69 0 0.382-0.311 0.69-0.69 0.69zM28.121 22.213c-0.018 0-0.033 0.015-0.033 0.033 0 0.036 0.065 0.036 0.065 0 0-0.018-0.015-0.033-0.033-0.033z"></path>
<path fill="#ff6b6b" d="M30.018 20.933c-0.207 0-0.373-0.169-0.373-0.373 0-0.207 0.169-0.373 0.373-0.373s0.373 0.169 0.373 0.373c0 0.204-0.166 0.373-0.373 0.373zM30.018 20.276c-0.157 0-0.284 0.127-0.284 0.284s0.127 0.284 0.284 0.284 0.284-0.127 0.284-0.284-0.127-0.284-0.284-0.284z"></path>
<path fill="#ff6b6b" d="M30.018 21.25c-0.379 0-0.69-0.311-0.69-0.69s0.311-0.69 0.69-0.69 0.69 0.311 0.69 0.69c0 0.379-0.308 0.69-0.69 0.69zM30.018 20.527c-0.018 0-0.033 0.015-0.033 0.033 0 0.036 0.065 0.036 0.065 0 0-0.018-0.015-0.033-0.033-0.033z"></path>
<path fill="#ff6b6b" d="M28.225 19.141c-0.207 0-0.373-0.169-0.373-0.373 0-0.207 0.169-0.373 0.373-0.373s0.373 0.169 0.373 0.373c0 0.207-0.166 0.373-0.373 0.373zM28.225 18.483c-0.157 0-0.284 0.127-0.284 0.284s0.127 0.284 0.284 0.284 0.284-0.127 0.284-0.284-0.127-0.284-0.284-0.284z"></path>
<path fill="#ff6b6b" d="M28.225 19.458c-0.379 0-0.69-0.311-0.69-0.69s0.311-0.69 0.69-0.69c0.379 0 0.69 0.311 0.69 0.69s-0.308 0.69-0.69 0.69zM28.225 18.735c-0.018 0-0.033 0.015-0.033 0.033 0 0.036 0.065 0.036 0.065 0 0-0.018-0.015-0.033-0.033-0.033z"></path>
<path fill="#ff6b6b" d="M31.6 19.141c-0.207 0-0.373-0.169-0.373-0.373 0-0.207 0.169-0.373 0.373-0.373s0.373 0.169 0.373 0.373c0 0.207-0.169 0.373-0.373 0.373zM31.6 18.483c-0.157 0-0.284 0.127-0.284 0.284s0.127 0.284 0.284 0.284c0.157 0 0.284-0.127 0.284-0.284s-0.127-0.284-0.284-0.284z"></path>
<path fill="#ff6b6b" d="M31.6 19.458c-0.379 0-0.69-0.311-0.69-0.69s0.311-0.69 0.69-0.69 0.69 0.311 0.69 0.69c0 0.379-0.311 0.69-0.69 0.69zM31.6 18.735c-0.018 0-0.033 0.015-0.033 0.033 0 0.036 0.065 0.036 0.065 0 0-0.018-0.015-0.033-0.033-0.033z"></path>
<path fill="#ff6b6b" d="M33.496 20.827c-0.207 0-0.373-0.169-0.373-0.373 0-0.207 0.169-0.373 0.373-0.373s0.373 0.169 0.373 0.373c0 0.207-0.166 0.373-0.373 0.373zM33.496 20.169c-0.157 0-0.284 0.127-0.284 0.284s0.127 0.284 0.284 0.284c0.157 0 0.284-0.127 0.284-0.284s-0.127-0.284-0.284-0.284z"></path>
<path fill="#ff6b6b" d="M33.496 21.144c-0.379 0-0.69-0.311-0.69-0.69s0.311-0.69 0.69-0.69 0.69 0.311 0.69 0.69c0 0.382-0.308 0.69-0.69 0.69zM33.496 20.421c-0.018 0-0.033 0.015-0.033 0.033 0 0.036 0.065 0.036 0.065 0 0-0.018-0.015-0.033-0.033-0.033z"></path>
<path fill="#ff6b6b" d="M35.182 19.141c-0.207 0-0.373-0.169-0.373-0.373 0-0.207 0.169-0.373 0.373-0.373s0.373 0.169 0.373 0.373c0.003 0.207-0.166 0.373-0.373 0.373zM35.182 18.483c-0.157 0-0.284 0.127-0.284 0.284s0.127 0.284 0.284 0.284c0.157 0 0.284-0.127 0.284-0.284s-0.127-0.284-0.284-0.284z"></path>
<path fill="#ff6b6b" d="M35.182 19.458c-0.379 0-0.69-0.311-0.69-0.69s0.311-0.69 0.69-0.69 0.69 0.311 0.69 0.69c0 0.379-0.308 0.69-0.69 0.69zM35.182 18.735c-0.018 0-0.033 0.015-0.033 0.033 0 0.036 0.065 0.036 0.065 0 0-0.018-0.012-0.033-0.033-0.033z"></path>
<path fill="#ff6b6b" d="M33.496 17.455c-0.207 0-0.373-0.169-0.373-0.373 0-0.207 0.169-0.373 0.373-0.373s0.373 0.169 0.373 0.373c0 0.204-0.166 0.373-0.373 0.373zM33.496 16.797c-0.157 0-0.284 0.127-0.284 0.284s0.127 0.284 0.284 0.284c0.157 0 0.284-0.127 0.284-0.284s-0.127-0.284-0.284-0.284z"></path>
<path fill="#ff6b6b" d="M33.496 17.772c-0.379 0-0.69-0.311-0.69-0.69s0.311-0.69 0.69-0.69 0.69 0.311 0.69 0.69c0 0.379-0.308 0.69-0.69 0.69zM33.496 17.049c-0.018 0-0.033 0.015-0.033 0.033 0 0.036 0.065 0.036 0.065 0 0-0.021-0.015-0.033-0.033-0.033z"></path>
<path fill="#ff6b6b" d="M35.289 15.662c-0.207 0-0.373-0.169-0.373-0.373 0-0.207 0.169-0.373 0.373-0.373s0.373 0.169 0.373 0.373c0 0.204-0.166 0.373-0.373 0.373zM35.289 15.004c-0.157 0-0.284 0.127-0.284 0.284s0.127 0.284 0.284 0.284c0.157 0 0.284-0.127 0.284-0.284s-0.127-0.284-0.284-0.284z"></path>
<path fill="#ff6b6b" d="M35.289 15.979c-0.379 0-0.69-0.311-0.69-0.69s0.311-0.69 0.69-0.69 0.69 0.311 0.69 0.69c0 0.379-0.311 0.69-0.69 0.69zM35.289 15.256c-0.018 0-0.033 0.015-0.033 0.033 0 0.036 0.065 0.036 0.065 0 0-0.018-0.015-0.033-0.033-0.033z"></path>
<path fill="#ff6b6b" d="M36.871 17.455c-0.207 0-0.373-0.169-0.373-0.373 0-0.207 0.169-0.373 0.373-0.373s0.373 0.169 0.373 0.373c0 0.204-0.169 0.373-0.373 0.373zM36.871 16.797c-0.157 0-0.284 0.127-0.284 0.284s0.127 0.284 0.284 0.284c0.157 0 0.284-0.127 0.284-0.284s-0.13-0.284-0.284-0.284z"></path>
<path fill="#ff6b6b" d="M36.871 17.772c-0.379 0-0.69-0.311-0.69-0.69s0.311-0.69 0.69-0.69 0.69 0.311 0.69 0.69c0 0.379-0.311 0.69-0.69 0.69zM36.871 17.049c-0.018 0-0.033 0.015-0.033 0.033 0 0.036 0.065 0.036 0.065 0 0-0.021-0.015-0.033-0.033-0.033z"></path>
<path fill="#ff6b6b" d="M38.661 15.662c-0.207 0-0.373-0.169-0.373-0.373 0-0.207 0.169-0.373 0.373-0.373s0.373 0.169 0.373 0.373c0.003 0.204-0.166 0.373-0.373 0.373zM38.661 15.004c-0.157 0-0.284 0.127-0.284 0.284s0.127 0.284 0.284 0.284c0.157 0 0.284-0.127 0.284-0.284s-0.127-0.284-0.284-0.284z"></path>
<path fill="#ff6b6b" d="M38.661 15.979c-0.379 0-0.69-0.311-0.69-0.69s0.311-0.69 0.69-0.69 0.69 0.311 0.69 0.69c0.003 0.379-0.308 0.69-0.69 0.69zM38.661 15.256c-0.018 0-0.033 0.015-0.033 0.033 0 0.036 0.065 0.036 0.065 0 0-0.018-0.012-0.033-0.033-0.033z"></path>
</svg>
