<svg aria-hidden="true" style="position: absolute; width: 0; height: 0; overflow: hidden;" version="1.1" xmlns="http://www.w3.org/2000/svg" xmlns:xlink="http://www.w3.org/1999/xlink">
<defs>
<symbol id="icon-3DKonfigurator" viewBox="0 0 57 32">
<path fill="#ff5050" style="fill: var(--color1, #ff5050)" d="M42.578 1.63c0.033 0 0.059 0.027 0.059 0.059v29.037c0 0.033-0.027 0.059-0.059 0.059h-29.037c-0.033 0-0.059-0.027-0.059-0.059v-29.037c0-0.033 0.027-0.059 0.059-0.059h29.037zM42.578 0.889h-29.037c-0.441 0-0.8 0.359-0.8 0.8v29.037c0 0.441 0.359 0.8 0.8 0.8h29.037c0.441 0 0.8-0.359 0.8-0.8v-29.037c0-0.441-0.359-0.8-0.8-0.8v0z"></path>
<path fill="#ff5050" style="fill: var(--color1, #ff5050)" d="M17.185 6.133h-0.889c-0.622 0-1.126-0.504-1.126-1.126v-0.889c0-0.622 0.504-1.126 1.126-1.126h0.889c0.622 0 1.126 0.504 1.126 1.126v0.889c0 0.622-0.504 1.126-1.126 1.126z"></path>
<path fill="#fff" style="fill: var(--color2, #fff)" d="M17.185 5.956c-0.243 0-0.489 0-0.732 0-0.326 0-0.619-0.056-0.853-0.305-0.231-0.246-0.252-0.542-0.252-0.859 0-0.249-0.018-0.504 0.003-0.753 0.036-0.427 0.37-0.782 0.791-0.853 0.249-0.041 0.521-0.012 0.773-0.012 0.308 0 0.601 0 0.859 0.201 0.273 0.216 0.361 0.524 0.361 0.856 0 0.284 0.018 0.575-0.003 0.859-0.041 0.489-0.465 0.856-0.948 0.865-0.228 0.003-0.228 0.359 0 0.356 0.516-0.009 0.99-0.308 1.194-0.785 0.139-0.32 0.11-0.667 0.11-1.007 0-0.361 0.015-0.714-0.169-1.040-0.234-0.415-0.676-0.658-1.147-0.664-0.284-0.003-0.569-0.003-0.853 0-0.459 0.003-0.883 0.222-1.132 0.613-0.201 0.32-0.199 0.67-0.199 1.031 0 0.338-0.036 0.702 0.092 1.025 0.201 0.504 0.684 0.821 1.221 0.827 0.293 0.003 0.587 0 0.88 0 0.231 0 0.231-0.356 0.003-0.356z"></path>
<path fill="#ff5050" style="fill: var(--color1, #ff5050)" d="M20.222 4.933c0.599 0 1.194 0 1.793 0 1.434 0 2.868 0 4.302 0 1.733 0 3.467 0 5.2 0 1.49 0 2.981 0 4.471 0 0.729 0 1.461 0.021 2.19 0 0.009 0 0.021 0 0.030 0 0.456 0 0.459-0.711 0-0.711-0.599 0-1.194 0-1.793 0-1.434 0-2.868 0-4.302 0-1.733 0-3.467 0-5.2 0-1.49 0-2.981 0-4.471 0-0.729 0-1.461-0.021-2.19 0-0.009 0-0.021 0-0.030 0-0.456 0-0.459 0.711 0 0.711v0z"></path>
<path fill="#ff5050" style="fill: var(--color1, #ff5050)" d="M17.2 9.644h-0.889c-0.622 0-1.126-0.504-1.126-1.126v-0.889c0-0.622 0.504-1.126 1.126-1.126h0.889c0.622 0 1.126 0.504 1.126 1.126v0.889c0 0.622-0.504 1.126-1.126 1.126z"></path>
<path fill="#fff" style="fill: var(--color2, #fff)" d="M17.2 9.467c-0.243 0-0.489 0-0.732 0-0.326 0-0.619-0.056-0.853-0.305-0.231-0.246-0.252-0.542-0.252-0.859 0-0.249-0.018-0.504 0.003-0.753 0.036-0.427 0.37-0.782 0.791-0.853 0.249-0.041 0.521-0.012 0.773-0.012 0.308 0 0.601 0 0.859 0.201 0.273 0.216 0.361 0.524 0.361 0.856 0 0.284 0.018 0.575-0.003 0.859-0.041 0.489-0.465 0.856-0.948 0.865-0.228 0.003-0.228 0.359 0 0.356 0.516-0.009 0.99-0.308 1.194-0.785 0.139-0.32 0.11-0.667 0.11-1.007 0-0.361 0.015-0.714-0.169-1.040-0.234-0.415-0.676-0.658-1.147-0.664-0.284-0.003-0.569-0.003-0.853 0-0.459 0.003-0.883 0.222-1.132 0.613-0.201 0.32-0.199 0.67-0.199 1.031 0 0.338-0.036 0.702 0.092 1.025 0.201 0.504 0.684 0.821 1.221 0.827 0.293 0.003 0.587 0 0.88 0 0.231 0 0.231-0.356 0.003-0.356z"></path>
<path fill="#ff5050" style="fill: var(--color1, #ff5050)" d="M20.237 8.444c0.599 0 1.194 0 1.793 0 1.434 0 2.868 0 4.302 0 1.733 0 3.467 0 5.2 0 1.49 0 2.981 0 4.471 0 0.729 0 1.461 0.021 2.19 0 0.009 0 0.021 0 0.030 0 0.456 0 0.459-0.711 0-0.711-0.599 0-1.194 0-1.793 0-1.434 0-2.868 0-4.302 0-1.733 0-3.467 0-5.2 0-1.49 0-2.981 0-4.471 0-0.729 0-1.461-0.021-2.19 0-0.009 0-0.021 0-0.030 0-0.456 0-0.459 0.711 0 0.711v0z"></path>
<path fill="#ff5050" style="fill: var(--color1, #ff5050)" d="M22.044 7.259c0 0.593 0 1.185 0 1.778 0 0.456 0.711 0.459 0.711 0 0-0.593 0-1.185 0-1.778 0-0.456-0.711-0.459-0.711 0v0z"></path>
<path fill="#ff5050" style="fill: var(--color1, #ff5050)" d="M28.622 3.674c0 0.593 0 1.185 0 1.778 0 0.456 0.711 0.459 0.711 0 0-0.593 0-1.185 0-1.778 0-0.456-0.711-0.459-0.711 0v0z"></path>
<path fill="#ff5050" style="fill: var(--color1, #ff5050)" d="M18.904 19.022c0 0.982-0.796 1.778-1.778 1.778s-1.778-0.796-1.778-1.778c0-0.982 0.796-1.778 1.778-1.778s1.778 0.796 1.778 1.778z"></path>
<path fill="#ff5050" style="fill: var(--color1, #ff5050)" d="M32.77 24.504c0 0.982-0.796 1.778-1.778 1.778s-1.778-0.796-1.778-1.778c0-0.982 0.796-1.778 1.778-1.778s1.778 0.796 1.778 1.778z"></path>
<path fill="#ff5050" style="fill: var(--color1, #ff5050)" d="M40.474 26.993c0 0.982-0.796 1.778-1.778 1.778s-1.778-0.796-1.778-1.778c0-0.982 0.796-1.778 1.778-1.778s1.778 0.796 1.778 1.778z"></path>
<path fill="#ff5050" style="fill: var(--color1, #ff5050)" d="M25.363 26.993c0 0.982-0.796 1.778-1.778 1.778s-1.778-0.796-1.778-1.778c0-0.982 0.796-1.778 1.778-1.778s1.778 0.796 1.778 1.778z"></path>
<path fill="#ff5050" style="fill: var(--color1, #ff5050)" d="M19.612 19.090c1.668 0.536 2.462 2.335 2.927 3.884 0.11 0.37 0.204 0.744 0.299 1.12 0.053 0.222 0.397 0.127 0.344-0.095-0.391-1.588-0.892-3.336-2.142-4.474-0.385-0.35-0.833-0.616-1.327-0.776-0.225-0.074-0.317 0.27-0.101 0.341v0z"></path>
<path fill="#ff5050" style="fill: var(--color1, #ff5050)" d="M25.372 25.396c0.172-0.53 0.471-1.043 0.919-1.39 0.441-0.341 0.99-0.456 1.529-0.323 0.222 0.053 0.317-0.287 0.095-0.344-0.631-0.154-1.28-0.033-1.804 0.359-0.527 0.397-0.88 0.981-1.081 1.603-0.071 0.219 0.273 0.311 0.344 0.095v0z"></path>
<path fill="#ff5050" style="fill: var(--color1, #ff5050)" d="M34.006 23.784c1.064-0.877 2.942-0.519 3.544 0.735 0.098 0.207 0.406 0.027 0.308-0.181-0.554-1.156-2.015-1.615-3.197-1.28-0.332 0.095-0.637 0.252-0.904 0.474-0.178 0.148 0.074 0.397 0.249 0.252v0z"></path>
<path fill="#ff5050" style="fill: var(--color1, #ff5050)" d="M23.719 23.778l-0.424 1.25-1.004-0.839z"></path>
<path fill="#ff5050" style="fill: var(--color1, #ff5050)" d="M28.095 22.844l0.61 1.167-1.301 0.148z"></path>
<path fill="#ff5050" style="fill: var(--color1, #ff5050)" d="M37.84 23.39l0.030 1.321-1.233-0.447z"></path>
<path fill="#ff5050" style="fill: var(--color1, #ff5050)" d="M26.015 12.859v4.184h-4.187v-4.184h4.187zM26.667 12.207h-5.49v5.487h5.49v-5.487z"></path>
<path fill="#ff5050" style="fill: var(--color1, #ff5050)" d="M21.188 12.18l1.78-1.942 0.481 0.44-1.78 1.942-0.481-0.44z"></path>
<path fill="#ff5050" style="fill: var(--color1, #ff5050)" d="M26.112 12.272l1.915-1.834 0.451 0.471-1.915 1.834-0.451-0.471z"></path>
<path fill="#ff5050" style="fill: var(--color1, #ff5050)" d="M21.376 17.118l1.437-1.557 0.479 0.442-1.437 1.557-0.479-0.442z"></path>
<path fill="#ff5050" style="fill: var(--color1, #ff5050)" d="M26.252 17.233l1.942-1.78 0.44 0.48-1.942 1.78-0.44-0.48z"></path>
<path fill="#ff5050" style="fill: var(--color1, #ff5050)" d="M22.75 10.459h0.652v5.41h-0.652v-5.41z"></path>
<path fill="#ff5050" style="fill: var(--color1, #ff5050)" d="M27.997 10.516h0.652v5.39h-0.652v-5.39z"></path>
<path fill="#ff5050" style="fill: var(--color1, #ff5050)" d="M22.993 10.213h5.639v0.652h-5.639v-0.652z"></path>
<path fill="#ff5050" style="fill: var(--color1, #ff5050)" d="M23.031 15.464h5.381v0.652h-5.381v-0.652z"></path>
<path fill="#ff5050" style="fill: var(--color1, #ff5050)" d="M35.351 14.664v2.501h-2.501v-2.501h2.501zM36.003 14.012h-3.804v3.804h3.804v-3.804z"></path>
<path fill="#ff5050" style="fill: var(--color1, #ff5050)" d="M32.194 14.013l1.216-1.482 0.504 0.413-1.216 1.482-0.504-0.413z"></path>
<path fill="#ff5050" style="fill: var(--color1, #ff5050)" d="M35.591 14.023l1.28-1.301 0.465 0.457-1.28 1.301-0.465-0.457z"></path>
<path fill="#ff5050" style="fill: var(--color1, #ff5050)" d="M32.264 17.347l0.995-1.078 0.479 0.442-0.995 1.078-0.479-0.442z"></path>
<path fill="#ff5050" style="fill: var(--color1, #ff5050)" d="M35.611 17.294l1.422-1.214 0.423 0.496-1.422 1.214-0.423-0.496z"></path>
<path fill="#ff5050" style="fill: var(--color1, #ff5050)" d="M33.191 12.8h0.652v3.748h-0.652v-3.748z"></path>
<path fill="#ff5050" style="fill: var(--color1, #ff5050)" d="M36.827 12.839h0.652v3.736h-0.652v-3.736z"></path>
<path fill="#ff5050" style="fill: var(--color1, #ff5050)" d="M33.458 12.53h3.994v0.652h-3.994v-0.652z"></path>
<path fill="#ff5050" style="fill: var(--color1, #ff5050)" d="M33.188 16.059h3.73v0.652h-3.73v-0.652z"></path>
</symbol>
<symbol id="icon-3DCube" viewBox="0 0 57 32">
<path fill="#ff5050" style="fill: var(--color1, #ff5050)" d="M32.273 9.95v20.361h-20.361v-20.361h20.361zM33.665 8.557h-23.147v23.147h23.147v-23.147z"></path>
<path fill="#ff5050" style="fill: var(--color1, #ff5050)" d="M10.517 8.551l7.502-7.77 1.002 0.967-7.502 7.77-1.002-0.967z"></path>
<path fill="#ff5050" style="fill: var(--color1, #ff5050)" d="M32.44 8.649l7.503-7.503 0.985 0.985-7.503 7.503-0.985-0.985z"></path>
<path fill="#ff5050" style="fill: var(--color1, #ff5050)" d="M10.493 30.668l7.44-7.531 0.991 0.979-7.44 7.531-0.991-0.979z"></path>
<path fill="#ff5050" style="fill: var(--color1, #ff5050)" d="M32.726 30.735l7.596-7.56 0.982 0.987-7.596 7.56-0.982-0.987z"></path>
<path fill="#ff5050" style="fill: var(--color1, #ff5050)" d="M17.834 1.176h1.393v22.815h-1.393v-22.815z"></path>
<path fill="#ff5050" style="fill: var(--color1, #ff5050)" d="M39.964 1.41h1.393v22.735h-1.393v-22.735z"></path>
<path fill="#ff5050" style="fill: var(--color1, #ff5050)" d="M18.012 0.77h23.342v1.393h-23.342v-1.393z"></path>
<path fill="#ff5050" style="fill: var(--color1, #ff5050)" d="M18.341 22.957h22.696v1.393h-22.696v-1.393z"></path>
</symbol>
<symbol id="icon-Video" viewBox="0 0 57 32">
<path fill="#ff5050" style="fill: var(--color1, #ff5050)" d="M49.393 2.311v27.407h-40.504v-27.407h40.504zM50.193 0.859h-42.104c-0.361 0-0.652 0.29-0.652 0.652v29.007c0 0.361 0.29 0.652 0.652 0.652h42.104c0.361 0 0.652-0.29 0.652-0.652v-29.007c0-0.361-0.29-0.652-0.652-0.652v0z"></path>
<path fill="#ff5050" style="fill: var(--color1, #ff5050)" d="M10.637 8.667c0.332 0 0.664 0 0.999 0 0.898 0 1.793 0 2.69 0 1.33 0 2.658 0 3.988 0 1.621 0 3.244 0 4.865 0 1.769 0 3.541 0 5.31 0 1.799 0 3.597 0 5.399 0 1.665 0 3.333 0 4.999 0 1.413 0 2.827 0 4.24 0 1.016 0 2.033 0 3.049 0 0.48 0 0.96 0.006 1.44 0 0.021 0 0.041 0 0.062 0 0.465 0 0.91-0.409 0.889-0.889-0.021-0.483-0.391-0.889-0.889-0.889-0.332 0-0.664 0-0.999 0-0.898 0-1.793 0-2.69 0-1.33 0-2.658 0-3.988 0-1.621 0-3.244 0-4.865 0-1.769 0-3.541 0-5.31 0-1.799 0-3.597 0-5.399 0-1.665 0-3.333 0-4.999 0-1.413 0-2.827 0-4.24 0-1.016 0-2.033 0-3.049 0-0.48 0-0.96-0.006-1.44 0-0.021 0-0.041 0-0.062 0-0.465 0-0.91 0.409-0.889 0.889 0.021 0.483 0.391 0.889 0.889 0.889v0z"></path>
<path fill="#ff5050" style="fill: var(--color1, #ff5050)" d="M10.637 25.407c0.332 0 0.664 0 0.999 0 0.898 0 1.793 0 2.69 0 1.33 0 2.658 0 3.988 0 1.621 0 3.244 0 4.865 0 1.769 0 3.541 0 5.31 0 1.799 0 3.597 0 5.399 0 1.665 0 3.333 0 4.999 0 1.413 0 2.827 0 4.24 0 1.016 0 2.033 0 3.049 0 0.48 0 0.96 0.006 1.44 0 0.021 0 0.041 0 0.062 0 0.465 0 0.91-0.409 0.889-0.889-0.021-0.483-0.391-0.889-0.889-0.889-0.332 0-0.664 0-0.999 0-0.898 0-1.793 0-2.69 0-1.33 0-2.658 0-3.988 0-1.621 0-3.244 0-4.865 0-1.769 0-3.541 0-5.31 0-1.799 0-3.597 0-5.399 0-1.665 0-3.333 0-4.999 0-1.413 0-2.827 0-4.24 0-1.016 0-2.033 0-3.049 0-0.48 0-0.96-0.006-1.44 0-0.021 0-0.041 0-0.062 0-0.465 0-0.91 0.409-0.889 0.889 0.021 0.483 0.391 0.889 0.889 0.889v0z"></path>
<path fill="#ff5050" style="fill: var(--color1, #ff5050)" d="M12.178 7.23h1.63v17.57h-1.63v-17.57z"></path>
<path fill="#ff5050" style="fill: var(--color1, #ff5050)" d="M44.207 7.793h1.63v17.57h-1.63v-17.57z"></path>
<path fill="#ff5050" style="fill: var(--color1, #ff5050)" d="M35.556 11.484l6.593 4.533-6.563 4.474z"></path>
<path fill="#ff5050" style="fill: var(--color1, #ff5050)" d="M24.711 20.859h-8.267c-0.163 0-0.296-0.133-0.296-0.296v-9.126c0-0.163 0.133-0.296 0.296-0.296h8.267c0.163 0 0.296 0.133 0.296 0.296v9.126c0 0.163-0.133 0.296-0.296 0.296z"></path>
<path fill="#ff5050" style="fill: var(--color1, #ff5050)" d="M29.807 11.852l-3.585 2.071v4.139l3.585 2.068z"></path>
<path fill="#ff5050" style="fill: var(--color1, #ff5050)" d="M10.696 3.644c0 0.483 0 0.969 0 1.452 0 0.279 0.246 0.545 0.533 0.533 0.29-0.012 0.533-0.234 0.533-0.533 0-0.483 0-0.969 0-1.452 0-0.279-0.246-0.545-0.533-0.533-0.29 0.012-0.533 0.234-0.533 0.533v0z"></path>
<path fill="#ff5050" style="fill: var(--color1, #ff5050)" d="M14.711 3.644c0 0.483 0 0.969 0 1.452 0 0.279 0.246 0.545 0.533 0.533 0.29-0.012 0.533-0.234 0.533-0.533 0-0.483 0-0.969 0-1.452 0-0.279-0.246-0.545-0.533-0.533-0.29 0.012-0.533 0.234-0.533 0.533v0z"></path>
<path fill="#ff5050" style="fill: var(--color1, #ff5050)" d="M18.726 3.644c0 0.483 0 0.969 0 1.452 0 0.279 0.246 0.545 0.533 0.533 0.29-0.012 0.533-0.234 0.533-0.533 0-0.483 0-0.969 0-1.452 0-0.279-0.246-0.545-0.533-0.533-0.29 0.012-0.533 0.234-0.533 0.533v0z"></path>
<path fill="#ff5050" style="fill: var(--color1, #ff5050)" d="M22.741 3.644c0 0.483 0 0.969 0 1.452 0 0.279 0.246 0.545 0.533 0.533 0.29-0.012 0.533-0.234 0.533-0.533 0-0.483 0-0.969 0-1.452 0-0.279-0.246-0.545-0.533-0.533-0.29 0.012-0.533 0.234-0.533 0.533v0z"></path>
<path fill="#ff5050" style="fill: var(--color1, #ff5050)" d="M26.756 3.644c0 0.483 0 0.969 0 1.452 0 0.279 0.246 0.545 0.533 0.533 0.29-0.012 0.533-0.234 0.533-0.533 0-0.483 0-0.969 0-1.452 0-0.279-0.246-0.545-0.533-0.533-0.29 0.012-0.533 0.234-0.533 0.533v0z"></path>
<path fill="#ff5050" style="fill: var(--color1, #ff5050)" d="M30.77 3.644c0 0.483 0 0.969 0 1.452 0 0.279 0.246 0.545 0.533 0.533 0.29-0.012 0.533-0.234 0.533-0.533 0-0.483 0-0.969 0-1.452 0-0.279-0.246-0.545-0.533-0.533-0.29 0.012-0.533 0.234-0.533 0.533v0z"></path>
<path fill="#ff5050" style="fill: var(--color1, #ff5050)" d="M34.785 3.644c0 0.483 0 0.969 0 1.452 0 0.279 0.246 0.545 0.533 0.533 0.29-0.012 0.533-0.234 0.533-0.533 0-0.483 0-0.969 0-1.452 0-0.279-0.246-0.545-0.533-0.533-0.29 0.012-0.533 0.234-0.533 0.533v0z"></path>
<path fill="#ff5050" style="fill: var(--color1, #ff5050)" d="M38.8 3.644c0 0.483 0 0.969 0 1.452 0 0.279 0.246 0.545 0.533 0.533 0.29-0.012 0.533-0.234 0.533-0.533 0-0.483 0-0.969 0-1.452 0-0.279-0.246-0.545-0.533-0.533-0.29 0.012-0.533 0.234-0.533 0.533v0z"></path>
<path fill="#ff5050" style="fill: var(--color1, #ff5050)" d="M42.815 3.644c0 0.483 0 0.969 0 1.452 0 0.279 0.246 0.545 0.533 0.533 0.29-0.012 0.533-0.234 0.533-0.533 0-0.483 0-0.969 0-1.452 0-0.279-0.246-0.545-0.533-0.533-0.29 0.012-0.533 0.234-0.533 0.533v0z"></path>
<path fill="#ff5050" style="fill: var(--color1, #ff5050)" d="M46.83 3.644c0 0.483 0 0.969 0 1.452 0 0.279 0.246 0.545 0.533 0.533 0.29-0.012 0.533-0.234 0.533-0.533 0-0.483 0-0.969 0-1.452 0-0.279-0.246-0.545-0.533-0.533-0.29 0.012-0.533 0.234-0.533 0.533v0z"></path>
<path fill="#ff5050" style="fill: var(--color1, #ff5050)" d="M10.696 26.904c0 0.483 0 0.969 0 1.452 0 0.279 0.246 0.545 0.533 0.533 0.29-0.012 0.533-0.234 0.533-0.533 0-0.483 0-0.969 0-1.452 0-0.279-0.246-0.545-0.533-0.533-0.29 0.012-0.533 0.234-0.533 0.533v0z"></path>
<path fill="#ff5050" style="fill: var(--color1, #ff5050)" d="M14.711 26.904c0 0.483 0 0.969 0 1.452 0 0.279 0.246 0.545 0.533 0.533 0.29-0.012 0.533-0.234 0.533-0.533 0-0.483 0-0.969 0-1.452 0-0.279-0.246-0.545-0.533-0.533-0.29 0.012-0.533 0.234-0.533 0.533v0z"></path>
<path fill="#ff5050" style="fill: var(--color1, #ff5050)" d="M18.726 26.904c0 0.483 0 0.969 0 1.452 0 0.279 0.246 0.545 0.533 0.533 0.29-0.012 0.533-0.234 0.533-0.533 0-0.483 0-0.969 0-1.452 0-0.279-0.246-0.545-0.533-0.533-0.29 0.012-0.533 0.234-0.533 0.533v0z"></path>
<path fill="#ff5050" style="fill: var(--color1, #ff5050)" d="M22.741 26.904c0 0.483 0 0.969 0 1.452 0 0.279 0.246 0.545 0.533 0.533 0.29-0.012 0.533-0.234 0.533-0.533 0-0.483 0-0.969 0-1.452 0-0.279-0.246-0.545-0.533-0.533-0.29 0.012-0.533 0.234-0.533 0.533v0z"></path>
<path fill="#ff5050" style="fill: var(--color1, #ff5050)" d="M26.756 26.904c0 0.483 0 0.969 0 1.452 0 0.279 0.246 0.545 0.533 0.533 0.29-0.012 0.533-0.234 0.533-0.533 0-0.483 0-0.969 0-1.452 0-0.279-0.246-0.545-0.533-0.533-0.29 0.012-0.533 0.234-0.533 0.533v0z"></path>
<path fill="#ff5050" style="fill: var(--color1, #ff5050)" d="M30.77 26.904c0 0.483 0 0.969 0 1.452 0 0.279 0.246 0.545 0.533 0.533 0.29-0.012 0.533-0.234 0.533-0.533 0-0.483 0-0.969 0-1.452 0-0.279-0.246-0.545-0.533-0.533-0.29 0.012-0.533 0.234-0.533 0.533v0z"></path>
<path fill="#ff5050" style="fill: var(--color1, #ff5050)" d="M34.785 26.904c0 0.483 0 0.969 0 1.452 0 0.279 0.246 0.545 0.533 0.533 0.29-0.012 0.533-0.234 0.533-0.533 0-0.483 0-0.969 0-1.452 0-0.279-0.246-0.545-0.533-0.533-0.29 0.012-0.533 0.234-0.533 0.533v0z"></path>
<path fill="#ff5050" style="fill: var(--color1, #ff5050)" d="M38.8 26.904c0 0.483 0 0.969 0 1.452 0 0.279 0.246 0.545 0.533 0.533 0.29-0.012 0.533-0.234 0.533-0.533 0-0.483 0-0.969 0-1.452 0-0.279-0.246-0.545-0.533-0.533-0.29 0.012-0.533 0.234-0.533 0.533v0z"></path>
<path fill="#ff5050" style="fill: var(--color1, #ff5050)" d="M42.815 26.904c0 0.483 0 0.969 0 1.452 0 0.279 0.246 0.545 0.533 0.533 0.29-0.012 0.533-0.234 0.533-0.533 0-0.483 0-0.969 0-1.452 0-0.279-0.246-0.545-0.533-0.533-0.29 0.012-0.533 0.234-0.533 0.533v0z"></path>
<path fill="#ff5050" style="fill: var(--color1, #ff5050)" d="M46.83 26.904c0 0.483 0 0.969 0 1.452 0 0.279 0.246 0.545 0.533 0.533 0.29-0.012 0.533-0.234 0.533-0.533 0-0.483 0-0.969 0-1.452 0-0.279-0.246-0.545-0.533-0.533-0.29 0.012-0.533 0.234-0.533 0.533v0z"></path>
</symbol>
<symbol id="icon-mobileDesign" viewBox="0 0 57 32">
<path fill="#ff5050" style="fill: var(--color1, #ff5050)" d="M28.35 5.138h-3.194c-0.089 0-0.163-0.074-0.163-0.163v-0.693c0-0.089 0.074-0.163 0.163-0.163h3.194c0.089 0 0.163 0.074 0.163 0.163v0.693c0 0.089-0.071 0.163-0.163 0.163z"></path>
<path fill="#ff5050" style="fill: var(--color1, #ff5050)" d="M25.108 23.292h-1.064c-0.089 0-0.163-0.074-0.163-0.163v-0.693c0-0.089 0.074-0.163 0.163-0.163h1.064c0.089 0 0.163 0.074 0.163 0.163v0.693c0 0.089-0.071 0.163-0.163 0.163z"></path>
<path fill="#ff5050" style="fill: var(--color1, #ff5050)" d="M27.33 23.292h-1.064c-0.089 0-0.163-0.074-0.163-0.163v-0.693c0-0.089 0.074-0.163 0.163-0.163h1.064c0.089 0 0.163 0.074 0.163 0.163v0.693c0 0.089-0.071 0.163-0.163 0.163z"></path>
<path fill="#ff5050" style="fill: var(--color1, #ff5050)" d="M27.404 28.388h-1.212c-0.050 0-0.089-0.039-0.089-0.089v-0.841c0-0.050 0.039-0.089 0.089-0.089h1.212c0.050 0 0.089 0.039 0.089 0.089v0.841c0 0.047-0.039 0.089-0.089 0.089z"></path>
<path fill="#ff5050" style="fill: var(--color1, #ff5050)" d="M29.647 23.292h-1.064c-0.089 0-0.163-0.074-0.163-0.163v-0.693c0-0.089 0.074-0.163 0.163-0.163h1.064c0.089 0 0.163 0.074 0.163 0.163v0.693c0 0.089-0.074 0.163-0.163 0.163z"></path>
<path fill="#ff5050" style="fill: var(--color1, #ff5050)" d="M35.553 20.447c-1.215 0-4.053-0.296-5.893-1.473-1.899-1.212-2.782-3.105-3.636-4.933-0.584-1.25-1.135-2.43-1.976-3.345-2.030-2.204-6.519-2.409-6.563-2.412l0.024-0.557c0.047 0.003 1.2 0.050 2.631 0.388 1.944 0.459 3.396 1.2 4.317 2.201 0.901 0.981 1.496 2.255 2.071 3.487 0.821 1.757 1.668 3.573 3.431 4.699 1.123 0.717 2.613 1.058 3.665 1.218 1.241 0.19 2.193 0.178 2.323 0.145l0.133 0.539c-0.083 0.027-0.267 0.041-0.527 0.041z"></path>
<path fill="#ff5050" style="fill: var(--color1, #ff5050)" d="M35.956 17.41c-2.4-0.139-4.311-0.527-6.018-1.224-1.553-0.634-2.975-1.535-4.613-2.919-0.975-0.824-2.569-1.375-4.613-1.597-1.713-0.187-3.138-0.077-3.2-0.074l-0.044-0.554c0.228-0.018 5.594-0.412 8.213 1.801 2.753 2.323 5.321 3.724 10.305 4.012l-0.030 0.554z"></path>
<path fill="#ff5050" style="fill: var(--color1, #ff5050)" d="M17.466 25.357l18.551-0.093 0.002 0.409-18.551 0.093-0.002-0.409z"></path>
<path fill="#ff5050" style="fill: var(--color1, #ff5050)" d="M17.437 25.796l-0.003-0.468h0.030l18.581-0.092 0.003 0.468h-0.030l-18.581 0.092zM17.493 25.387l0.003 0.353 18.492-0.092-0.003-0.353-18.492 0.092z"></path>
<path fill="#ff5050" style="fill: var(--color1, #ff5050)" d="M35.92 31.44h-18.332c-0.459 0-0.836-0.373-0.836-0.836v-29.076c0-0.459 0.373-0.836 0.836-0.836h18.329c0.459 0 0.836 0.373 0.836 0.836v29.076c0 0.459-0.373 0.836-0.833 0.836zM17.588 1.428c-0.056 0-0.104 0.047-0.104 0.104v29.076c0 0.056 0.047 0.104 0.104 0.104h18.329c0.056 0 0.104-0.047 0.104-0.104v-29.079c0-0.056-0.047-0.104-0.104-0.104h-18.329z"></path>
<path fill="#ff5050" style="fill: var(--color1, #ff5050)" d="M35.92 31.57h-18.332c-0.533 0-0.966-0.433-0.966-0.966v-29.076c0-0.533 0.433-0.966 0.966-0.966h18.329c0.533 0 0.966 0.433 0.966 0.966v29.076c0.003 0.533-0.433 0.966-0.963 0.966zM17.588 0.827c-0.388 0-0.702 0.314-0.702 0.702v29.076c0 0.388 0.314 0.702 0.702 0.702h18.329c0.388 0 0.702-0.314 0.702-0.702v-29.076c0-0.388-0.314-0.702-0.702-0.702h-18.329zM35.92 30.839h-18.332c-0.13 0-0.234-0.104-0.234-0.234v-29.076c0-0.13 0.104-0.234 0.234-0.234h18.329c0.13 0 0.234 0.104 0.234 0.234v29.076c0.003 0.13-0.104 0.234-0.231 0.234zM17.618 30.575h18.273v-29.016h-18.273v29.016z"></path>
<path fill="#ff5050" style="fill: var(--color1, #ff5050)" d="M36.687 8.009v0c-0.127 0-0.231-0.104-0.231-0.231v-2.687c0-0.127 0.104-0.231 0.231-0.231v0c0.127 0 0.231 0.104 0.231 0.231v2.687c0 0.127-0.104 0.231-0.231 0.231z"></path>
</symbol>
<symbol id="icon-webDevelopment" viewBox="0 0 57 32">
<path fill="#ff5050" style="fill: var(--color1, #ff5050)" d="M14.518 5.594l0.001-0.356 29.63 0.096-0.001 0.356-29.63-0.096z"></path>
<path fill="#ff5050" stroke="#ff5050" stroke-width="0.9185" stroke-miterlimit="10" stroke-linecap="butt" stroke-linejoin="miter" style="fill: var(--color1, #ff5050); stroke: var(--color1, #ff5050)" d="M44.326 31.132h-29.985v-29.861h29.985v29.861zM14.696 30.776h29.274v-29.15h-29.274v29.15z"></path>
<path fill="#ff5050" stroke="#ff5050" stroke-width="0.4444" stroke-miterlimit="10" stroke-linecap="butt" stroke-linejoin="miter" style="fill: var(--color1, #ff5050); stroke: var(--color1, #ff5050)" d="M15.953 2.883h1.147v1.147h-1.147v-1.147z"></path>
<path fill="#ff5050" stroke="#ff5050" stroke-width="0.4444" stroke-miterlimit="10" stroke-linecap="butt" stroke-linejoin="miter" style="fill: var(--color1, #ff5050); stroke: var(--color1, #ff5050)" d="M16.524 7.473h1.147v1.147h-1.147v-1.147z"></path>
<path fill="#ff5050" stroke="#ff5050" stroke-width="0.4444" stroke-miterlimit="10" stroke-linecap="butt" stroke-linejoin="miter" style="fill: var(--color1, #ff5050); stroke: var(--color1, #ff5050)" d="M40.993 7.473h1.147v1.147h-1.147v-1.147z"></path>
<path fill="#ff5050" stroke="#ff5050" stroke-width="0.4444" stroke-miterlimit="10" stroke-linecap="butt" stroke-linejoin="miter" style="fill: var(--color1, #ff5050); stroke: var(--color1, #ff5050)" d="M27.23 7.95h4.204v1.147h-4.204v-1.147z"></path>
<path fill="#ff5050" stroke="#ff5050" stroke-width="0.4444" stroke-miterlimit="10" stroke-linecap="butt" stroke-linejoin="miter" style="fill: var(--color1, #ff5050); stroke: var(--color1, #ff5050)" d="M16.524 27.831h1.147v1.147h-1.147v-1.147z"></path>
<path fill="#ff5050" stroke="#ff5050" stroke-width="0.4444" stroke-miterlimit="10" stroke-linecap="butt" stroke-linejoin="miter" style="fill: var(--color1, #ff5050); stroke: var(--color1, #ff5050)" d="M40.993 27.831h1.147v1.147h-1.147v-1.147z"></path>
<path fill="#ff5050" stroke="#ff5050" stroke-width="0.4444" stroke-miterlimit="10" stroke-linecap="butt" stroke-linejoin="miter" style="fill: var(--color1, #ff5050); stroke: var(--color1, #ff5050)" d="M27.23 27.351h4.204v1.147h-4.204v-1.147z"></path>
<path fill="#ff5050" stroke="#ff5050" stroke-width="0.4444" stroke-miterlimit="10" stroke-linecap="butt" stroke-linejoin="miter" style="fill: var(--color1, #ff5050); stroke: var(--color1, #ff5050)" d="M16.047 13.588h1.147v1.147h-1.147v-1.147z"></path>
<path fill="#ff5050" stroke="#ff5050" stroke-width="0.4444" stroke-miterlimit="10" stroke-linecap="butt" stroke-linejoin="miter" style="fill: var(--color1, #ff5050); stroke: var(--color1, #ff5050)" d="M16.047 15.594h1.147v1.147h-1.147v-1.147z"></path>
<path fill="#ff5050" stroke="#ff5050" stroke-width="0.4444" stroke-miterlimit="10" stroke-linecap="butt" stroke-linejoin="miter" style="fill: var(--color1, #ff5050); stroke: var(--color1, #ff5050)" d="M16.047 17.603h1.147v1.147h-1.147v-1.147z"></path>
<path fill="#ff5050" stroke="#ff5050" stroke-width="0.4444" stroke-miterlimit="10" stroke-linecap="butt" stroke-linejoin="miter" style="fill: var(--color1, #ff5050); stroke: var(--color1, #ff5050)" d="M16.047 19.707h1.147v1.147h-1.147v-1.147z"></path>
<path fill="#ff5050" stroke="#ff5050" stroke-width="0.4444" stroke-miterlimit="10" stroke-linecap="butt" stroke-linejoin="miter" style="fill: var(--color1, #ff5050); stroke: var(--color1, #ff5050)" d="M18.056 15.594h1.147v1.147h-1.147v-1.147z"></path>
<path fill="#ff5050" stroke="#ff5050" stroke-width="0.4444" stroke-miterlimit="10" stroke-linecap="butt" stroke-linejoin="miter" style="fill: var(--color1, #ff5050); stroke: var(--color1, #ff5050)" d="M18.056 17.603h1.147v1.147h-1.147v-1.147z"></path>
<path fill="#ff5050" stroke="#ff5050" stroke-width="0.4444" stroke-miterlimit="10" stroke-linecap="butt" stroke-linejoin="miter" style="fill: var(--color1, #ff5050); stroke: var(--color1, #ff5050)" d="M20.062 17.603h1.147v1.147h-1.147v-1.147z"></path>
<path fill="#ff5050" stroke="#ff5050" stroke-width="0.4444" stroke-miterlimit="10" stroke-linecap="butt" stroke-linejoin="miter" style="fill: var(--color1, #ff5050); stroke: var(--color1, #ff5050)" d="M18.056 19.707h1.147v1.147h-1.147v-1.147z"></path>
<path fill="#ff5050" stroke="#ff5050" stroke-width="0.4444" stroke-miterlimit="10" stroke-linecap="butt" stroke-linejoin="miter" style="fill: var(--color1, #ff5050); stroke: var(--color1, #ff5050)" d="M16.047 21.713h1.147v1.147h-1.147v-1.147z"></path>
<path fill="#ff5050" stroke="#ff5050" stroke-width="0.4444" stroke-miterlimit="10" stroke-linecap="butt" stroke-linejoin="miter" style="fill: var(--color1, #ff5050); stroke: var(--color1, #ff5050)" d="M42.618 22.86h-1.147v-1.147h1.147v1.147z"></path>
<path fill="#ff5050" stroke="#ff5050" stroke-width="0.4444" stroke-miterlimit="10" stroke-linecap="butt" stroke-linejoin="miter" style="fill: var(--color1, #ff5050); stroke: var(--color1, #ff5050)" d="M42.618 20.851h-1.147v-1.147h1.147v1.147z"></path>
<path fill="#ff5050" stroke="#ff5050" stroke-width="0.4444" stroke-miterlimit="10" stroke-linecap="butt" stroke-linejoin="miter" style="fill: var(--color1, #ff5050); stroke: var(--color1, #ff5050)" d="M42.618 18.846h-1.147v-1.147h1.147v1.147z"></path>
<path fill="#ff5050" stroke="#ff5050" stroke-width="0.4444" stroke-miterlimit="10" stroke-linecap="butt" stroke-linejoin="miter" style="fill: var(--color1, #ff5050); stroke: var(--color1, #ff5050)" d="M42.618 16.744h-1.147v-1.147h1.147v1.147z"></path>
<path fill="#ff5050" stroke="#ff5050" stroke-width="0.4444" stroke-miterlimit="10" stroke-linecap="butt" stroke-linejoin="miter" style="fill: var(--color1, #ff5050); stroke: var(--color1, #ff5050)" d="M40.613 20.851h-1.147v-1.147h1.147v1.147z"></path>
<path fill="#ff5050" stroke="#ff5050" stroke-width="0.4444" stroke-miterlimit="10" stroke-linecap="butt" stroke-linejoin="miter" style="fill: var(--color1, #ff5050); stroke: var(--color1, #ff5050)" d="M40.613 18.846h-1.147v-1.147h1.147v1.147z"></path>
<path fill="#ff5050" stroke="#ff5050" stroke-width="0.4444" stroke-miterlimit="10" stroke-linecap="butt" stroke-linejoin="miter" style="fill: var(--color1, #ff5050); stroke: var(--color1, #ff5050)" d="M38.604 18.846h-1.147v-1.147h1.147v1.147z"></path>
<path fill="#ff5050" stroke="#ff5050" stroke-width="0.4444" stroke-miterlimit="10" stroke-linecap="butt" stroke-linejoin="miter" style="fill: var(--color1, #ff5050); stroke: var(--color1, #ff5050)" d="M40.613 16.744h-1.147v-1.147h1.147v1.147z"></path>
<path fill="#ff5050" stroke="#ff5050" stroke-width="0.4444" stroke-miterlimit="10" stroke-linecap="butt" stroke-linejoin="miter" style="fill: var(--color1, #ff5050); stroke: var(--color1, #ff5050)" d="M42.618 14.736h-1.147v-1.147h1.147v1.147z"></path>
<path fill="#ff5050" stroke="#ff5050" stroke-width="0.4444" stroke-miterlimit="10" stroke-linecap="butt" stroke-linejoin="miter" style="fill: var(--color1, #ff5050); stroke: var(--color1, #ff5050)" d="M18.056 2.883h1.147v1.147h-1.147v-1.147z"></path>
<path fill="#ff5050" stroke="#ff5050" stroke-width="0.4444" stroke-miterlimit="10" stroke-linecap="butt" stroke-linejoin="miter" style="fill: var(--color1, #ff5050); stroke: var(--color1, #ff5050)" d="M20.062 2.883h1.147v1.147h-1.147v-1.147z"></path>
<path fill="#ff5050" stroke="#ff5050" stroke-width="0.4444" stroke-miterlimit="10" stroke-linecap="butt" stroke-linejoin="miter" style="fill: var(--color1, #ff5050); stroke: var(--color1, #ff5050)" d="M40.516 2.883h2.104v1.147h-2.104v-1.147z"></path>
<path fill="#ff5050" style="fill: var(--color1, #ff5050)" d="M29.333 19.979c-0.993 0-1.801-0.809-1.801-1.801s0.809-1.801 1.801-1.801 1.801 0.809 1.801 1.801-0.809 1.801-1.801 1.801zM29.333 16.729c-0.797 0-1.446 0.649-1.446 1.446s0.649 1.446 1.446 1.446 1.446-0.649 1.446-1.446-0.649-1.446-1.446-1.446z"></path>
<path fill="#ff5050" style="fill: var(--color1, #ff5050)" d="M22.524 16.646c0 0.895 0 1.787 0 2.681 0 0.124 0 0.252 0 0.376 0 0.145 0.121 0.267 0.267 0.267 0.557 0 1.114 0 1.671 0-0.077-0.044-0.154-0.089-0.231-0.133 0.157 0.287 0.317 0.575 0.474 0.859 0.015-0.107 0.027-0.216 0.041-0.323-0.367 0.367-0.732 0.732-1.099 1.099-0.101 0.101-0.101 0.276 0 0.376 0.584 0.584 1.17 1.17 1.754 1.754 0.083 0.083 0.169 0.169 0.252 0.252 0.101 0.101 0.276 0.101 0.376 0 0.35-0.35 0.702-0.702 1.052-1.052-0.124 0-0.252 0-0.376 0 0.32 0.32 0.637 0.637 0.957 0.957-0.027-0.062-0.053-0.124-0.077-0.19 0 0.424 0 0.847 0 1.271 0 0.145 0.121 0.267 0.267 0.267 0.847 0.006 1.698 0.012 2.545 0.018 0.124 0 0.246 0.003 0.37 0.003 0.145 0 0.267-0.124 0.267-0.267 0-0.625 0-1.25 0-1.879-0.044 0.077-0.089 0.154-0.133 0.231 0.32-0.172 0.637-0.341 0.957-0.513-0.107-0.015-0.216-0.027-0.323-0.041 0.447 0.447 0.892 0.892 1.339 1.339 0.101 0.101 0.276 0.101 0.376 0 0.59-0.59 1.179-1.179 1.766-1.766 0.083-0.083 0.169-0.169 0.252-0.252 0.101-0.101 0.101-0.276 0-0.376-0.447-0.447-0.892-0.892-1.339-1.339 0 0.124 0 0.252 0 0.376 0.252-0.252 0.504-0.504 0.753-0.753-0.062 0.027-0.124 0.053-0.19 0.077 0.492 0 0.984 0 1.479 0 0.145 0 0.267-0.121 0.267-0.267 0-0.895 0-1.787 0-2.681 0-0.124 0-0.252 0-0.376 0-0.145-0.121-0.267-0.267-0.267-0.643 0-1.286 0-1.932 0 0.086 0.065 0.172 0.13 0.258 0.196-0.104-0.255-0.207-0.51-0.311-0.764-0.024 0.086-0.044 0.172-0.068 0.261 0.424-0.424 0.844-0.844 1.268-1.268 0.101-0.101 0.101-0.276 0-0.376-0.599-0.599-1.197-1.197-1.793-1.793-0.086-0.086-0.175-0.175-0.261-0.261-0.101-0.101-0.276-0.101-0.376 0-0.453 0.453-0.91 0.91-1.363 1.363 0.124 0 0.252 0 0.376 0-0.255-0.255-0.51-0.51-0.764-0.764 0.027 0.062 0.053 0.124 0.077 0.19 0-0.495 0-0.987 0-1.481 0-0.145-0.121-0.267-0.267-0.267-0.877 0-1.754 0-2.631 0-0.127 0-0.252 0-0.379 0-0.145 0-0.267 0.121-0.267 0.267 0 0.542 0 1.084 0 1.624 0.027-0.062 0.053-0.124 0.077-0.19-0.24 0.24-0.477 0.477-0.717 0.717 0.124 0 0.252 0 0.376 0-0.43-0.43-0.859-0.859-1.289-1.289-0.101-0.101-0.276-0.101-0.376 0-0.593 0.593-1.185 1.185-1.778 1.778-0.086 0.086-0.172 0.172-0.258 0.258-0.101 0.101-0.101 0.276 0 0.376 0.382 0.382 0.764 0.764 1.147 1.147 0-0.124 0-0.252 0-0.376-0.243 0.243-0.489 0.489-0.732 0.732 0.062-0.027 0.124-0.053 0.19-0.077-0.462 0-0.924 0.003-1.387 0.003-0.344 0-0.344 0.533 0 0.533 0.447 0 0.895 0.006 1.342-0.003 0.216-0.006 0.344-0.19 0.486-0.332 0.16-0.16 0.32-0.32 0.477-0.477 0.101-0.101 0.101-0.276 0-0.376-0.382-0.382-0.764-0.764-1.147-1.147 0 0.124 0 0.252 0 0.376 0.593-0.593 1.185-1.185 1.778-1.778 0.086-0.086 0.172-0.172 0.258-0.258-0.124 0-0.252 0-0.376 0 0.43 0.43 0.859 0.859 1.289 1.289 0.101 0.101 0.276 0.101 0.376 0 0.127-0.127 0.252-0.252 0.379-0.379 0.083-0.083 0.166-0.166 0.249-0.249 0.062-0.062 0.133-0.121 0.157-0.207 0.036-0.133 0.009-0.302 0.009-0.436 0-0.255 0-0.507 0-0.761 0-0.166 0-0.332 0-0.498-0.089 0.089-0.178 0.178-0.267 0.267 0.877 0 1.754 0 2.631 0 0.127 0 0.252 0 0.379 0-0.089-0.089-0.178-0.178-0.267-0.267 0 0.376 0 0.756 0 1.132 0 0.136-0.039 0.359 0.036 0.486 0.086 0.148 0.261 0.276 0.382 0.394 0.142 0.142 0.281 0.281 0.424 0.424 0.101 0.101 0.276 0.101 0.376 0 0.453-0.453 0.91-0.91 1.363-1.363-0.124 0-0.252 0-0.376 0 0.599 0.599 1.197 1.197 1.793 1.793 0.086 0.086 0.175 0.175 0.261 0.261 0-0.124 0-0.252 0-0.376-0.424 0.424-0.844 0.844-1.268 1.268-0.062 0.062-0.104 0.175-0.068 0.261 0.104 0.255 0.207 0.51 0.311 0.764 0.044 0.11 0.13 0.196 0.258 0.196 0.643 0 1.286 0 1.932 0-0.089-0.089-0.178-0.178-0.267-0.267 0 0.895 0 1.787 0 2.681 0 0.124 0 0.252 0 0.376 0.089-0.089 0.178-0.178 0.267-0.267-0.376 0-0.756 0-1.132 0-0.136 0-0.356-0.036-0.48 0.036-0.142 0.083-0.264 0.252-0.379 0.367-0.142 0.142-0.287 0.287-0.43 0.43-0.101 0.101-0.101 0.276 0 0.376 0.447 0.447 0.892 0.892 1.339 1.339 0-0.124 0-0.252 0-0.376-0.59 0.59-1.179 1.179-1.766 1.766-0.083 0.083-0.169 0.169-0.252 0.252 0.124 0 0.252 0 0.376 0-0.447-0.447-0.892-0.892-1.339-1.339-0.086-0.086-0.219-0.098-0.323-0.041-0.32 0.172-0.637 0.341-0.957 0.513-0.083 0.044-0.133 0.139-0.133 0.231 0 0.625 0 1.25 0 1.879 0.089-0.089 0.178-0.178 0.267-0.267-0.847-0.006-1.698-0.012-2.545-0.018-0.124 0-0.246-0.003-0.37-0.003 0.089 0.089 0.178 0.178 0.267 0.267 0-0.388 0-0.776 0-1.164 0-0.071 0.006-0.139-0.024-0.207-0.027-0.065-0.083-0.113-0.13-0.163-0.16-0.16-0.323-0.323-0.483-0.483-0.13-0.13-0.264-0.264-0.394-0.394-0.101-0.101-0.276-0.101-0.376 0-0.35 0.35-0.702 0.702-1.052 1.052 0.124 0 0.252 0 0.376 0-0.584-0.584-1.17-1.17-1.754-1.754-0.083-0.083-0.169-0.169-0.252-0.252 0 0.124 0 0.252 0 0.376 0.367-0.367 0.732-0.732 1.099-1.099 0.086-0.086 0.098-0.219 0.041-0.323-0.157-0.287-0.317-0.575-0.474-0.859-0.044-0.083-0.139-0.133-0.231-0.133-0.557 0-1.114 0-1.671 0 0.089 0.089 0.178 0.178 0.267 0.267 0-0.895 0-1.787 0-2.681 0-0.124 0-0.252 0-0.376 0.006-0.35-0.527-0.353-0.527-0.009z"></path>
</symbol>
<symbol id="icon-layer-icon" viewBox="0 0 57 32">
<path fill="#ff6b6b" style="fill: var(--color3, #ff6b6b)" d="M28.504 19.212l-16.684-9.348 16.673-9.627 16.447 9.399-16.436 9.576zM15.23 9.843l13.256 7.428 13.079-7.621-13.070-7.467-13.265 7.659z"></path>
<path fill="#ff6b6b" style="fill: var(--color3, #ff6b6b)" d="M28.504 25.327l-16.684-9.348 6.658-3.843 0.844 1.458-4.092 2.364 13.256 7.425 13.079-7.618-3.893-2.228 0.836-1.464 6.433 3.677z"></path>
<path fill="#ff6b6b" style="fill: var(--color3, #ff6b6b)" d="M28.504 31.864l-16.684-9.348 6.658-3.846 0.844 1.461-4.092 2.361 13.256 7.428 13.079-7.621-3.893-2.225 0.836-1.464 6.433 3.677z"></path>
<path fill="#ff6b6b" style="fill: var(--color3, #ff6b6b)" d="M17.79 15.662c-0.207 0-0.373-0.169-0.373-0.373 0-0.207 0.169-0.373 0.373-0.373s0.373 0.166 0.373 0.373c0 0.204-0.166 0.373-0.373 0.373zM17.79 15.004c-0.157 0-0.284 0.127-0.284 0.284s0.127 0.284 0.284 0.284 0.284-0.127 0.284-0.284c0-0.157-0.127-0.284-0.284-0.284z"></path>
<path fill="#ff6b6b" style="fill: var(--color3, #ff6b6b)" d="M17.79 15.979c-0.379 0-0.69-0.311-0.69-0.69s0.311-0.69 0.69-0.69c0.379 0 0.69 0.311 0.69 0.69s-0.311 0.69-0.69 0.69zM17.79 15.256c-0.018 0-0.033 0.015-0.033 0.033 0 0.036 0.065 0.036 0.065 0 0-0.018-0.015-0.033-0.033-0.033z"></path>
<path fill="#ff6b6b" style="fill: var(--color3, #ff6b6b)" d="M19.476 17.348c-0.207 0-0.373-0.169-0.373-0.373 0-0.207 0.169-0.373 0.373-0.373s0.373 0.169 0.373 0.373c0 0.207-0.166 0.373-0.373 0.373zM19.476 16.69c-0.157 0-0.284 0.127-0.284 0.284s0.127 0.284 0.284 0.284 0.284-0.127 0.284-0.284-0.127-0.284-0.284-0.284z"></path>
<path fill="#ff6b6b" style="fill: var(--color3, #ff6b6b)" d="M19.476 17.665c-0.379 0-0.69-0.311-0.69-0.69s0.311-0.69 0.69-0.69c0.379 0 0.69 0.311 0.69 0.69 0 0.382-0.308 0.69-0.69 0.69zM19.476 16.942c-0.018 0-0.033 0.015-0.033 0.033 0 0.036 0.065 0.036 0.065 0 0-0.018-0.015-0.033-0.033-0.033z"></path>
<path fill="#ff6b6b" style="fill: var(--color3, #ff6b6b)" d="M21.161 19.037c-0.207 0-0.373-0.169-0.373-0.373 0-0.207 0.169-0.373 0.373-0.373 0.207 0 0.373 0.169 0.373 0.373 0.003 0.204-0.166 0.373-0.373 0.373zM21.161 18.379c-0.157 0-0.284 0.127-0.284 0.284s0.127 0.284 0.284 0.284 0.284-0.127 0.284-0.284-0.127-0.284-0.284-0.284z"></path>
<path fill="#ff6b6b" style="fill: var(--color3, #ff6b6b)" d="M21.161 19.351c-0.379 0-0.69-0.311-0.69-0.69s0.311-0.69 0.69-0.69c0.379 0 0.69 0.311 0.69 0.69 0 0.382-0.308 0.69-0.69 0.69zM21.161 18.628c-0.018 0-0.033 0.015-0.033 0.033 0 0.036 0.065 0.036 0.065 0 0-0.018-0.012-0.033-0.033-0.033z"></path>
<path fill="#ff6b6b" style="fill: var(--color3, #ff6b6b)" d="M22.954 20.827c-0.207 0-0.373-0.169-0.373-0.373 0-0.207 0.169-0.373 0.373-0.373s0.373 0.169 0.373 0.373c0.003 0.207-0.166 0.373-0.373 0.373zM22.954 20.169c-0.157 0-0.284 0.127-0.284 0.284s0.127 0.284 0.284 0.284 0.284-0.127 0.284-0.284-0.127-0.284-0.284-0.284z"></path>
<path fill="#ff6b6b" style="fill: var(--color3, #ff6b6b)" d="M22.954 21.144c-0.379 0-0.69-0.311-0.69-0.69s0.311-0.69 0.69-0.69c0.379 0 0.69 0.311 0.69 0.69 0 0.382-0.308 0.69-0.69 0.69zM22.954 20.421c-0.018 0-0.033 0.015-0.033 0.033 0 0.036 0.065 0.036 0.065 0 0-0.018-0.015-0.033-0.033-0.033z"></path>
<path fill="#ff6b6b" style="fill: var(--color3, #ff6b6b)" d="M21.058 15.769c-0.207 0-0.373-0.169-0.373-0.373s0.169-0.373 0.373-0.373c0.207 0 0.373 0.169 0.373 0.373s-0.169 0.373-0.373 0.373zM21.058 15.111c-0.157 0-0.284 0.127-0.284 0.284s0.127 0.284 0.284 0.284 0.284-0.127 0.284-0.284-0.127-0.284-0.284-0.284z"></path>
<path fill="#ff6b6b" style="fill: var(--color3, #ff6b6b)" d="M21.058 16.083c-0.379 0-0.69-0.311-0.69-0.69s0.311-0.69 0.69-0.69c0.379 0 0.69 0.311 0.69 0.69 0 0.382-0.311 0.69-0.69 0.69zM21.058 15.36c-0.018 0-0.033 0.015-0.033 0.033 0 0.036 0.065 0.036 0.065 0 0-0.018-0.015-0.033-0.033-0.033z"></path>
<path fill="#ff6b6b" style="fill: var(--color3, #ff6b6b)" d="M22.954 17.455c-0.207 0-0.373-0.169-0.373-0.373 0-0.207 0.169-0.373 0.373-0.373s0.373 0.169 0.373 0.373c0.003 0.204-0.166 0.373-0.373 0.373zM22.954 16.797c-0.157 0-0.284 0.127-0.284 0.284s0.127 0.284 0.284 0.284 0.284-0.127 0.284-0.284-0.127-0.284-0.284-0.284z"></path>
<path fill="#ff6b6b" style="fill: var(--color3, #ff6b6b)" d="M22.954 17.772c-0.379 0-0.69-0.311-0.69-0.69s0.311-0.69 0.69-0.69c0.379 0 0.69 0.311 0.69 0.69s-0.308 0.69-0.69 0.69zM22.954 17.049c-0.018 0-0.033 0.015-0.033 0.033 0 0.036 0.065 0.036 0.065 0 0-0.021-0.015-0.033-0.033-0.033z"></path>
<path fill="#ff6b6b" style="fill: var(--color3, #ff6b6b)" d="M24.643 19.141c-0.207 0-0.373-0.169-0.373-0.373 0-0.207 0.169-0.373 0.373-0.373 0.207 0 0.373 0.169 0.373 0.373 0 0.207-0.169 0.373-0.373 0.373zM24.643 18.483c-0.157 0-0.284 0.127-0.284 0.284s0.127 0.284 0.284 0.284 0.284-0.127 0.284-0.284-0.13-0.284-0.284-0.284z"></path>
<path fill="#ff6b6b" style="fill: var(--color3, #ff6b6b)" d="M24.643 19.458c-0.379 0-0.69-0.311-0.69-0.69s0.311-0.69 0.69-0.69c0.379 0 0.69 0.311 0.69 0.69s-0.311 0.69-0.69 0.69zM24.643 18.735c-0.018 0-0.033 0.015-0.033 0.033 0 0.036 0.065 0.036 0.065 0-0.003-0.018-0.015-0.033-0.033-0.033z"></path>
<path fill="#ff6b6b" style="fill: var(--color3, #ff6b6b)" d="M26.433 20.933c-0.207 0-0.373-0.169-0.373-0.373 0-0.207 0.169-0.373 0.373-0.373 0.207 0 0.373 0.169 0.373 0.373 0.003 0.204-0.166 0.373-0.373 0.373zM26.433 20.276c-0.157 0-0.284 0.127-0.284 0.284s0.127 0.284 0.284 0.284 0.284-0.127 0.284-0.284-0.127-0.284-0.284-0.284z"></path>
<path fill="#ff6b6b" style="fill: var(--color3, #ff6b6b)" d="M26.433 21.25c-0.379 0-0.69-0.311-0.69-0.69s0.311-0.69 0.69-0.69c0.379 0 0.69 0.311 0.69 0.69s-0.308 0.69-0.69 0.69zM26.433 20.527c-0.018 0-0.033 0.015-0.033 0.033 0 0.036 0.065 0.036 0.065 0 0-0.018-0.012-0.033-0.033-0.033z"></path>
<path fill="#ff6b6b" style="fill: var(--color3, #ff6b6b)" d="M28.121 22.619c-0.207 0-0.373-0.169-0.373-0.373 0-0.207 0.169-0.373 0.373-0.373 0.207 0 0.373 0.169 0.373 0.373 0 0.207-0.169 0.373-0.373 0.373zM28.121 21.961c-0.157 0-0.284 0.127-0.284 0.284s0.127 0.284 0.284 0.284 0.284-0.127 0.284-0.284-0.13-0.284-0.284-0.284z"></path>
<path fill="#ff6b6b" style="fill: var(--color3, #ff6b6b)" d="M28.121 22.936c-0.379 0-0.69-0.311-0.69-0.69s0.311-0.69 0.69-0.69c0.379 0 0.69 0.311 0.69 0.69 0 0.382-0.311 0.69-0.69 0.69zM28.121 22.213c-0.018 0-0.033 0.015-0.033 0.033 0 0.036 0.065 0.036 0.065 0 0-0.018-0.015-0.033-0.033-0.033z"></path>
<path fill="#ff6b6b" style="fill: var(--color3, #ff6b6b)" d="M30.018 20.933c-0.207 0-0.373-0.169-0.373-0.373 0-0.207 0.169-0.373 0.373-0.373s0.373 0.169 0.373 0.373c0 0.204-0.166 0.373-0.373 0.373zM30.018 20.276c-0.157 0-0.284 0.127-0.284 0.284s0.127 0.284 0.284 0.284 0.284-0.127 0.284-0.284-0.127-0.284-0.284-0.284z"></path>
<path fill="#ff6b6b" style="fill: var(--color3, #ff6b6b)" d="M30.018 21.25c-0.379 0-0.69-0.311-0.69-0.69s0.311-0.69 0.69-0.69 0.69 0.311 0.69 0.69c0 0.379-0.308 0.69-0.69 0.69zM30.018 20.527c-0.018 0-0.033 0.015-0.033 0.033 0 0.036 0.065 0.036 0.065 0 0-0.018-0.015-0.033-0.033-0.033z"></path>
<path fill="#ff6b6b" style="fill: var(--color3, #ff6b6b)" d="M28.225 19.141c-0.207 0-0.373-0.169-0.373-0.373 0-0.207 0.169-0.373 0.373-0.373s0.373 0.169 0.373 0.373c0 0.207-0.166 0.373-0.373 0.373zM28.225 18.483c-0.157 0-0.284 0.127-0.284 0.284s0.127 0.284 0.284 0.284 0.284-0.127 0.284-0.284-0.127-0.284-0.284-0.284z"></path>
<path fill="#ff6b6b" style="fill: var(--color3, #ff6b6b)" d="M28.225 19.458c-0.379 0-0.69-0.311-0.69-0.69s0.311-0.69 0.69-0.69c0.379 0 0.69 0.311 0.69 0.69s-0.308 0.69-0.69 0.69zM28.225 18.735c-0.018 0-0.033 0.015-0.033 0.033 0 0.036 0.065 0.036 0.065 0 0-0.018-0.015-0.033-0.033-0.033z"></path>
<path fill="#ff6b6b" style="fill: var(--color3, #ff6b6b)" d="M31.6 19.141c-0.207 0-0.373-0.169-0.373-0.373 0-0.207 0.169-0.373 0.373-0.373s0.373 0.169 0.373 0.373c0 0.207-0.169 0.373-0.373 0.373zM31.6 18.483c-0.157 0-0.284 0.127-0.284 0.284s0.127 0.284 0.284 0.284c0.157 0 0.284-0.127 0.284-0.284s-0.127-0.284-0.284-0.284z"></path>
<path fill="#ff6b6b" style="fill: var(--color3, #ff6b6b)" d="M31.6 19.458c-0.379 0-0.69-0.311-0.69-0.69s0.311-0.69 0.69-0.69 0.69 0.311 0.69 0.69c0 0.379-0.311 0.69-0.69 0.69zM31.6 18.735c-0.018 0-0.033 0.015-0.033 0.033 0 0.036 0.065 0.036 0.065 0 0-0.018-0.015-0.033-0.033-0.033z"></path>
<path fill="#ff6b6b" style="fill: var(--color3, #ff6b6b)" d="M33.496 20.827c-0.207 0-0.373-0.169-0.373-0.373 0-0.207 0.169-0.373 0.373-0.373s0.373 0.169 0.373 0.373c0 0.207-0.166 0.373-0.373 0.373zM33.496 20.169c-0.157 0-0.284 0.127-0.284 0.284s0.127 0.284 0.284 0.284c0.157 0 0.284-0.127 0.284-0.284s-0.127-0.284-0.284-0.284z"></path>
<path fill="#ff6b6b" style="fill: var(--color3, #ff6b6b)" d="M33.496 21.144c-0.379 0-0.69-0.311-0.69-0.69s0.311-0.69 0.69-0.69 0.69 0.311 0.69 0.69c0 0.382-0.308 0.69-0.69 0.69zM33.496 20.421c-0.018 0-0.033 0.015-0.033 0.033 0 0.036 0.065 0.036 0.065 0 0-0.018-0.015-0.033-0.033-0.033z"></path>
<path fill="#ff6b6b" style="fill: var(--color3, #ff6b6b)" d="M35.182 19.141c-0.207 0-0.373-0.169-0.373-0.373 0-0.207 0.169-0.373 0.373-0.373s0.373 0.169 0.373 0.373c0.003 0.207-0.166 0.373-0.373 0.373zM35.182 18.483c-0.157 0-0.284 0.127-0.284 0.284s0.127 0.284 0.284 0.284c0.157 0 0.284-0.127 0.284-0.284s-0.127-0.284-0.284-0.284z"></path>
<path fill="#ff6b6b" style="fill: var(--color3, #ff6b6b)" d="M35.182 19.458c-0.379 0-0.69-0.311-0.69-0.69s0.311-0.69 0.69-0.69 0.69 0.311 0.69 0.69c0 0.379-0.308 0.69-0.69 0.69zM35.182 18.735c-0.018 0-0.033 0.015-0.033 0.033 0 0.036 0.065 0.036 0.065 0 0-0.018-0.012-0.033-0.033-0.033z"></path>
<path fill="#ff6b6b" style="fill: var(--color3, #ff6b6b)" d="M33.496 17.455c-0.207 0-0.373-0.169-0.373-0.373 0-0.207 0.169-0.373 0.373-0.373s0.373 0.169 0.373 0.373c0 0.204-0.166 0.373-0.373 0.373zM33.496 16.797c-0.157 0-0.284 0.127-0.284 0.284s0.127 0.284 0.284 0.284c0.157 0 0.284-0.127 0.284-0.284s-0.127-0.284-0.284-0.284z"></path>
<path fill="#ff6b6b" style="fill: var(--color3, #ff6b6b)" d="M33.496 17.772c-0.379 0-0.69-0.311-0.69-0.69s0.311-0.69 0.69-0.69 0.69 0.311 0.69 0.69c0 0.379-0.308 0.69-0.69 0.69zM33.496 17.049c-0.018 0-0.033 0.015-0.033 0.033 0 0.036 0.065 0.036 0.065 0 0-0.021-0.015-0.033-0.033-0.033z"></path>
<path fill="#ff6b6b" style="fill: var(--color3, #ff6b6b)" d="M35.289 15.662c-0.207 0-0.373-0.169-0.373-0.373 0-0.207 0.169-0.373 0.373-0.373s0.373 0.169 0.373 0.373c0 0.204-0.166 0.373-0.373 0.373zM35.289 15.004c-0.157 0-0.284 0.127-0.284 0.284s0.127 0.284 0.284 0.284c0.157 0 0.284-0.127 0.284-0.284s-0.127-0.284-0.284-0.284z"></path>
<path fill="#ff6b6b" style="fill: var(--color3, #ff6b6b)" d="M35.289 15.979c-0.379 0-0.69-0.311-0.69-0.69s0.311-0.69 0.69-0.69 0.69 0.311 0.69 0.69c0 0.379-0.311 0.69-0.69 0.69zM35.289 15.256c-0.018 0-0.033 0.015-0.033 0.033 0 0.036 0.065 0.036 0.065 0 0-0.018-0.015-0.033-0.033-0.033z"></path>
<path fill="#ff6b6b" style="fill: var(--color3, #ff6b6b)" d="M36.871 17.455c-0.207 0-0.373-0.169-0.373-0.373 0-0.207 0.169-0.373 0.373-0.373s0.373 0.169 0.373 0.373c0 0.204-0.169 0.373-0.373 0.373zM36.871 16.797c-0.157 0-0.284 0.127-0.284 0.284s0.127 0.284 0.284 0.284c0.157 0 0.284-0.127 0.284-0.284s-0.13-0.284-0.284-0.284z"></path>
<path fill="#ff6b6b" style="fill: var(--color3, #ff6b6b)" d="M36.871 17.772c-0.379 0-0.69-0.311-0.69-0.69s0.311-0.69 0.69-0.69 0.69 0.311 0.69 0.69c0 0.379-0.311 0.69-0.69 0.69zM36.871 17.049c-0.018 0-0.033 0.015-0.033 0.033 0 0.036 0.065 0.036 0.065 0 0-0.021-0.015-0.033-0.033-0.033z"></path>
<path fill="#ff6b6b" style="fill: var(--color3, #ff6b6b)" d="M38.661 15.662c-0.207 0-0.373-0.169-0.373-0.373 0-0.207 0.169-0.373 0.373-0.373s0.373 0.169 0.373 0.373c0.003 0.204-0.166 0.373-0.373 0.373zM38.661 15.004c-0.157 0-0.284 0.127-0.284 0.284s0.127 0.284 0.284 0.284c0.157 0 0.284-0.127 0.284-0.284s-0.127-0.284-0.284-0.284z"></path>
<path fill="#ff6b6b" style="fill: var(--color3, #ff6b6b)" d="M38.661 15.979c-0.379 0-0.69-0.311-0.69-0.69s0.311-0.69 0.69-0.69 0.69 0.311 0.69 0.69c0.003 0.379-0.308 0.69-0.69 0.69zM38.661 15.256c-0.018 0-0.033 0.015-0.033 0.033 0 0.036 0.065 0.036 0.065 0 0-0.018-0.012-0.033-0.033-0.033z"></path>
</symbol>
</defs>
</svg>
